G04 #@! TF.GenerationSoftware,KiCad,Pcbnew,9.0.2+dfsg-1*
G04 #@! TF.CreationDate,2026-10-05T17:04:01+02:00*
G04 #@! TF.ProjectId,intellicart,696e7465-6c6c-4696-9361-72742e6b6963,1.2*
G04 #@! TF.SameCoordinates,Original*
G04 #@! TF.FileFunction,Legend,Top*
G04 #@! TF.FilePolarity,Positive*
%FSLAX46Y46*%
G04 Gerber Fmt 4.6, Leading zero omitted, Abs format (unit mm)*
G04 Created by KiCad (PCBNEW 9.0.2+dfsg-1) date 2026-10-05 17:04:01*
%MOMM*%
%LPD*%
G01*
G04 APERTURE LIST*
%ADD10C,0.150000*%
%ADD11C,0.120000*%
%ADD12C,0.100000*%
%ADD13C,1.400000*%
%ADD14O,1.400000X1.400000*%
%ADD15R,1.600000X1.600000*%
%ADD16C,1.600000*%
%ADD17R,1.300000X1.300000*%
%ADD18C,1.300000*%
%ADD19R,1.800000X1.800000*%
%ADD20C,1.800000*%
%ADD21C,2.000000*%
%ADD22R,1.700000X1.700000*%
%ADD23O,1.700000X1.700000*%
%ADD24O,1.600000X1.600000*%
%ADD25R,1.270000X8.840000*%
G04 APERTURE END LIST*
D10*
X112056152Y-135056476D02*
X112865676Y-135056476D01*
X112865676Y-135056476D02*
X112960914Y-135104095D01*
X112960914Y-135104095D02*
X113008533Y-135151714D01*
X113008533Y-135151714D02*
X113056152Y-135246952D01*
X113056152Y-135246952D02*
X113056152Y-135389809D01*
X113056152Y-135389809D02*
X113008533Y-135485047D01*
X112675200Y-135056476D02*
X112722819Y-135151714D01*
X112722819Y-135151714D02*
X112722819Y-135342190D01*
X112722819Y-135342190D02*
X112675200Y-135437428D01*
X112675200Y-135437428D02*
X112627580Y-135485047D01*
X112627580Y-135485047D02*
X112532342Y-135532666D01*
X112532342Y-135532666D02*
X112246628Y-135532666D01*
X112246628Y-135532666D02*
X112151390Y-135485047D01*
X112151390Y-135485047D02*
X112103771Y-135437428D01*
X112103771Y-135437428D02*
X112056152Y-135342190D01*
X112056152Y-135342190D02*
X112056152Y-135151714D01*
X112056152Y-135151714D02*
X112103771Y-135056476D01*
X112056152Y-134580285D02*
X112722819Y-134580285D01*
X112151390Y-134580285D02*
X112103771Y-134532666D01*
X112103771Y-134532666D02*
X112056152Y-134437428D01*
X112056152Y-134437428D02*
X112056152Y-134294571D01*
X112056152Y-134294571D02*
X112103771Y-134199333D01*
X112103771Y-134199333D02*
X112199009Y-134151714D01*
X112199009Y-134151714D02*
X112722819Y-134151714D01*
X112722819Y-133246952D02*
X111722819Y-133246952D01*
X112675200Y-133246952D02*
X112722819Y-133342190D01*
X112722819Y-133342190D02*
X112722819Y-133532666D01*
X112722819Y-133532666D02*
X112675200Y-133627904D01*
X112675200Y-133627904D02*
X112627580Y-133675523D01*
X112627580Y-133675523D02*
X112532342Y-133723142D01*
X112532342Y-133723142D02*
X112246628Y-133723142D01*
X112246628Y-133723142D02*
X112151390Y-133675523D01*
X112151390Y-133675523D02*
X112103771Y-133627904D01*
X112103771Y-133627904D02*
X112056152Y-133532666D01*
X112056152Y-133532666D02*
X112056152Y-133342190D01*
X112056152Y-133342190D02*
X112103771Y-133246952D01*
X86259200Y-100099713D02*
X86306819Y-99956856D01*
X86306819Y-99956856D02*
X86306819Y-99718761D01*
X86306819Y-99718761D02*
X86259200Y-99623523D01*
X86259200Y-99623523D02*
X86211580Y-99575904D01*
X86211580Y-99575904D02*
X86116342Y-99528285D01*
X86116342Y-99528285D02*
X86021104Y-99528285D01*
X86021104Y-99528285D02*
X85925866Y-99575904D01*
X85925866Y-99575904D02*
X85878247Y-99623523D01*
X85878247Y-99623523D02*
X85830628Y-99718761D01*
X85830628Y-99718761D02*
X85783009Y-99909237D01*
X85783009Y-99909237D02*
X85735390Y-100004475D01*
X85735390Y-100004475D02*
X85687771Y-100052094D01*
X85687771Y-100052094D02*
X85592533Y-100099713D01*
X85592533Y-100099713D02*
X85497295Y-100099713D01*
X85497295Y-100099713D02*
X85402057Y-100052094D01*
X85402057Y-100052094D02*
X85354438Y-100004475D01*
X85354438Y-100004475D02*
X85306819Y-99909237D01*
X85306819Y-99909237D02*
X85306819Y-99671142D01*
X85306819Y-99671142D02*
X85354438Y-99528285D01*
X86306819Y-99099713D02*
X85306819Y-99099713D01*
X85306819Y-99099713D02*
X85306819Y-98861618D01*
X85306819Y-98861618D02*
X85354438Y-98718761D01*
X85354438Y-98718761D02*
X85449676Y-98623523D01*
X85449676Y-98623523D02*
X85544914Y-98575904D01*
X85544914Y-98575904D02*
X85735390Y-98528285D01*
X85735390Y-98528285D02*
X85878247Y-98528285D01*
X85878247Y-98528285D02*
X86068723Y-98575904D01*
X86068723Y-98575904D02*
X86163961Y-98623523D01*
X86163961Y-98623523D02*
X86259200Y-98718761D01*
X86259200Y-98718761D02*
X86306819Y-98861618D01*
X86306819Y-98861618D02*
X86306819Y-99099713D01*
X103046473Y-175460819D02*
X103046473Y-174460819D01*
X103522663Y-174794152D02*
X103522663Y-175460819D01*
X103522663Y-174889390D02*
X103570282Y-174841771D01*
X103570282Y-174841771D02*
X103665520Y-174794152D01*
X103665520Y-174794152D02*
X103808377Y-174794152D01*
X103808377Y-174794152D02*
X103903615Y-174841771D01*
X103903615Y-174841771D02*
X103951234Y-174937009D01*
X103951234Y-174937009D02*
X103951234Y-175460819D01*
X104284568Y-174794152D02*
X104665520Y-174794152D01*
X104427425Y-174460819D02*
X104427425Y-175317961D01*
X104427425Y-175317961D02*
X104475044Y-175413200D01*
X104475044Y-175413200D02*
X104570282Y-175460819D01*
X104570282Y-175460819D02*
X104665520Y-175460819D01*
X105379806Y-175413200D02*
X105284568Y-175460819D01*
X105284568Y-175460819D02*
X105094092Y-175460819D01*
X105094092Y-175460819D02*
X104998854Y-175413200D01*
X104998854Y-175413200D02*
X104951235Y-175317961D01*
X104951235Y-175317961D02*
X104951235Y-174937009D01*
X104951235Y-174937009D02*
X104998854Y-174841771D01*
X104998854Y-174841771D02*
X105094092Y-174794152D01*
X105094092Y-174794152D02*
X105284568Y-174794152D01*
X105284568Y-174794152D02*
X105379806Y-174841771D01*
X105379806Y-174841771D02*
X105427425Y-174937009D01*
X105427425Y-174937009D02*
X105427425Y-175032247D01*
X105427425Y-175032247D02*
X104951235Y-175127485D01*
X105998854Y-175460819D02*
X105903616Y-175413200D01*
X105903616Y-175413200D02*
X105855997Y-175317961D01*
X105855997Y-175317961D02*
X105855997Y-174460819D01*
X106522664Y-175460819D02*
X106427426Y-175413200D01*
X106427426Y-175413200D02*
X106379807Y-175317961D01*
X106379807Y-175317961D02*
X106379807Y-174460819D01*
X106903617Y-175460819D02*
X106903617Y-174794152D01*
X106903617Y-174460819D02*
X106855998Y-174508438D01*
X106855998Y-174508438D02*
X106903617Y-174556057D01*
X106903617Y-174556057D02*
X106951236Y-174508438D01*
X106951236Y-174508438D02*
X106903617Y-174460819D01*
X106903617Y-174460819D02*
X106903617Y-174556057D01*
X107808378Y-175413200D02*
X107713140Y-175460819D01*
X107713140Y-175460819D02*
X107522664Y-175460819D01*
X107522664Y-175460819D02*
X107427426Y-175413200D01*
X107427426Y-175413200D02*
X107379807Y-175365580D01*
X107379807Y-175365580D02*
X107332188Y-175270342D01*
X107332188Y-175270342D02*
X107332188Y-174984628D01*
X107332188Y-174984628D02*
X107379807Y-174889390D01*
X107379807Y-174889390D02*
X107427426Y-174841771D01*
X107427426Y-174841771D02*
X107522664Y-174794152D01*
X107522664Y-174794152D02*
X107713140Y-174794152D01*
X107713140Y-174794152D02*
X107808378Y-174841771D01*
X108665521Y-175460819D02*
X108665521Y-174937009D01*
X108665521Y-174937009D02*
X108617902Y-174841771D01*
X108617902Y-174841771D02*
X108522664Y-174794152D01*
X108522664Y-174794152D02*
X108332188Y-174794152D01*
X108332188Y-174794152D02*
X108236950Y-174841771D01*
X108665521Y-175413200D02*
X108570283Y-175460819D01*
X108570283Y-175460819D02*
X108332188Y-175460819D01*
X108332188Y-175460819D02*
X108236950Y-175413200D01*
X108236950Y-175413200D02*
X108189331Y-175317961D01*
X108189331Y-175317961D02*
X108189331Y-175222723D01*
X108189331Y-175222723D02*
X108236950Y-175127485D01*
X108236950Y-175127485D02*
X108332188Y-175079866D01*
X108332188Y-175079866D02*
X108570283Y-175079866D01*
X108570283Y-175079866D02*
X108665521Y-175032247D01*
X109141712Y-175460819D02*
X109141712Y-174794152D01*
X109141712Y-174984628D02*
X109189331Y-174889390D01*
X109189331Y-174889390D02*
X109236950Y-174841771D01*
X109236950Y-174841771D02*
X109332188Y-174794152D01*
X109332188Y-174794152D02*
X109427426Y-174794152D01*
X109617903Y-174794152D02*
X109998855Y-174794152D01*
X109760760Y-174460819D02*
X109760760Y-175317961D01*
X109760760Y-175317961D02*
X109808379Y-175413200D01*
X109808379Y-175413200D02*
X109903617Y-175460819D01*
X109903617Y-175460819D02*
X109998855Y-175460819D01*
X110951237Y-174794152D02*
X111332189Y-174794152D01*
X111094094Y-175460819D02*
X111094094Y-174603676D01*
X111094094Y-174603676D02*
X111141713Y-174508438D01*
X111141713Y-174508438D02*
X111236951Y-174460819D01*
X111236951Y-174460819D02*
X111332189Y-174460819D01*
X111665523Y-175460819D02*
X111665523Y-174794152D01*
X111665523Y-174984628D02*
X111713142Y-174889390D01*
X111713142Y-174889390D02*
X111760761Y-174841771D01*
X111760761Y-174841771D02*
X111855999Y-174794152D01*
X111855999Y-174794152D02*
X111951237Y-174794152D01*
X112427428Y-175460819D02*
X112332190Y-175413200D01*
X112332190Y-175413200D02*
X112284571Y-175365580D01*
X112284571Y-175365580D02*
X112236952Y-175270342D01*
X112236952Y-175270342D02*
X112236952Y-174984628D01*
X112236952Y-174984628D02*
X112284571Y-174889390D01*
X112284571Y-174889390D02*
X112332190Y-174841771D01*
X112332190Y-174841771D02*
X112427428Y-174794152D01*
X112427428Y-174794152D02*
X112570285Y-174794152D01*
X112570285Y-174794152D02*
X112665523Y-174841771D01*
X112665523Y-174841771D02*
X112713142Y-174889390D01*
X112713142Y-174889390D02*
X112760761Y-174984628D01*
X112760761Y-174984628D02*
X112760761Y-175270342D01*
X112760761Y-175270342D02*
X112713142Y-175365580D01*
X112713142Y-175365580D02*
X112665523Y-175413200D01*
X112665523Y-175413200D02*
X112570285Y-175460819D01*
X112570285Y-175460819D02*
X112427428Y-175460819D01*
X113189333Y-175460819D02*
X113189333Y-174794152D01*
X113189333Y-174889390D02*
X113236952Y-174841771D01*
X113236952Y-174841771D02*
X113332190Y-174794152D01*
X113332190Y-174794152D02*
X113475047Y-174794152D01*
X113475047Y-174794152D02*
X113570285Y-174841771D01*
X113570285Y-174841771D02*
X113617904Y-174937009D01*
X113617904Y-174937009D02*
X113617904Y-175460819D01*
X113617904Y-174937009D02*
X113665523Y-174841771D01*
X113665523Y-174841771D02*
X113760761Y-174794152D01*
X113760761Y-174794152D02*
X113903618Y-174794152D01*
X113903618Y-174794152D02*
X113998857Y-174841771D01*
X113998857Y-174841771D02*
X114046476Y-174937009D01*
X114046476Y-174937009D02*
X114046476Y-175460819D01*
X115855999Y-175365580D02*
X115808380Y-175413200D01*
X115808380Y-175413200D02*
X115665523Y-175460819D01*
X115665523Y-175460819D02*
X115570285Y-175460819D01*
X115570285Y-175460819D02*
X115427428Y-175413200D01*
X115427428Y-175413200D02*
X115332190Y-175317961D01*
X115332190Y-175317961D02*
X115284571Y-175222723D01*
X115284571Y-175222723D02*
X115236952Y-175032247D01*
X115236952Y-175032247D02*
X115236952Y-174889390D01*
X115236952Y-174889390D02*
X115284571Y-174698914D01*
X115284571Y-174698914D02*
X115332190Y-174603676D01*
X115332190Y-174603676D02*
X115427428Y-174508438D01*
X115427428Y-174508438D02*
X115570285Y-174460819D01*
X115570285Y-174460819D02*
X115665523Y-174460819D01*
X115665523Y-174460819D02*
X115808380Y-174508438D01*
X115808380Y-174508438D02*
X115855999Y-174556057D01*
X116713142Y-175460819D02*
X116713142Y-174937009D01*
X116713142Y-174937009D02*
X116665523Y-174841771D01*
X116665523Y-174841771D02*
X116570285Y-174794152D01*
X116570285Y-174794152D02*
X116379809Y-174794152D01*
X116379809Y-174794152D02*
X116284571Y-174841771D01*
X116713142Y-175413200D02*
X116617904Y-175460819D01*
X116617904Y-175460819D02*
X116379809Y-175460819D01*
X116379809Y-175460819D02*
X116284571Y-175413200D01*
X116284571Y-175413200D02*
X116236952Y-175317961D01*
X116236952Y-175317961D02*
X116236952Y-175222723D01*
X116236952Y-175222723D02*
X116284571Y-175127485D01*
X116284571Y-175127485D02*
X116379809Y-175079866D01*
X116379809Y-175079866D02*
X116617904Y-175079866D01*
X116617904Y-175079866D02*
X116713142Y-175032247D01*
X117189333Y-175460819D02*
X117189333Y-174794152D01*
X117189333Y-174984628D02*
X117236952Y-174889390D01*
X117236952Y-174889390D02*
X117284571Y-174841771D01*
X117284571Y-174841771D02*
X117379809Y-174794152D01*
X117379809Y-174794152D02*
X117475047Y-174794152D01*
X117665524Y-174794152D02*
X118046476Y-174794152D01*
X117808381Y-174460819D02*
X117808381Y-175317961D01*
X117808381Y-175317961D02*
X117856000Y-175413200D01*
X117856000Y-175413200D02*
X117951238Y-175460819D01*
X117951238Y-175460819D02*
X118046476Y-175460819D01*
X118379810Y-175460819D02*
X118379810Y-174460819D01*
X118808381Y-175460819D02*
X118808381Y-174937009D01*
X118808381Y-174937009D02*
X118760762Y-174841771D01*
X118760762Y-174841771D02*
X118665524Y-174794152D01*
X118665524Y-174794152D02*
X118522667Y-174794152D01*
X118522667Y-174794152D02*
X118427429Y-174841771D01*
X118427429Y-174841771D02*
X118379810Y-174889390D01*
X119665524Y-175413200D02*
X119570286Y-175460819D01*
X119570286Y-175460819D02*
X119379810Y-175460819D01*
X119379810Y-175460819D02*
X119284572Y-175413200D01*
X119284572Y-175413200D02*
X119236953Y-175317961D01*
X119236953Y-175317961D02*
X119236953Y-174937009D01*
X119236953Y-174937009D02*
X119284572Y-174841771D01*
X119284572Y-174841771D02*
X119379810Y-174794152D01*
X119379810Y-174794152D02*
X119570286Y-174794152D01*
X119570286Y-174794152D02*
X119665524Y-174841771D01*
X119665524Y-174841771D02*
X119713143Y-174937009D01*
X119713143Y-174937009D02*
X119713143Y-175032247D01*
X119713143Y-175032247D02*
X119236953Y-175127485D01*
X120570286Y-174794152D02*
X120570286Y-175460819D01*
X120141715Y-174794152D02*
X120141715Y-175317961D01*
X120141715Y-175317961D02*
X120189334Y-175413200D01*
X120189334Y-175413200D02*
X120284572Y-175460819D01*
X120284572Y-175460819D02*
X120427429Y-175460819D01*
X120427429Y-175460819D02*
X120522667Y-175413200D01*
X120522667Y-175413200D02*
X120570286Y-175365580D01*
X121046477Y-175460819D02*
X121046477Y-174794152D01*
X121046477Y-174984628D02*
X121094096Y-174889390D01*
X121094096Y-174889390D02*
X121141715Y-174841771D01*
X121141715Y-174841771D02*
X121236953Y-174794152D01*
X121236953Y-174794152D02*
X121332191Y-174794152D01*
X122998858Y-175460819D02*
X122665525Y-174984628D01*
X122427430Y-175460819D02*
X122427430Y-174460819D01*
X122427430Y-174460819D02*
X122808382Y-174460819D01*
X122808382Y-174460819D02*
X122903620Y-174508438D01*
X122903620Y-174508438D02*
X122951239Y-174556057D01*
X122951239Y-174556057D02*
X122998858Y-174651295D01*
X122998858Y-174651295D02*
X122998858Y-174794152D01*
X122998858Y-174794152D02*
X122951239Y-174889390D01*
X122951239Y-174889390D02*
X122903620Y-174937009D01*
X122903620Y-174937009D02*
X122808382Y-174984628D01*
X122808382Y-174984628D02*
X122427430Y-174984628D01*
X123808382Y-175413200D02*
X123713144Y-175460819D01*
X123713144Y-175460819D02*
X123522668Y-175460819D01*
X123522668Y-175460819D02*
X123427430Y-175413200D01*
X123427430Y-175413200D02*
X123379811Y-175317961D01*
X123379811Y-175317961D02*
X123379811Y-174937009D01*
X123379811Y-174937009D02*
X123427430Y-174841771D01*
X123427430Y-174841771D02*
X123522668Y-174794152D01*
X123522668Y-174794152D02*
X123713144Y-174794152D01*
X123713144Y-174794152D02*
X123808382Y-174841771D01*
X123808382Y-174841771D02*
X123856001Y-174937009D01*
X123856001Y-174937009D02*
X123856001Y-175032247D01*
X123856001Y-175032247D02*
X123379811Y-175127485D01*
X124236954Y-175413200D02*
X124332192Y-175460819D01*
X124332192Y-175460819D02*
X124522668Y-175460819D01*
X124522668Y-175460819D02*
X124617906Y-175413200D01*
X124617906Y-175413200D02*
X124665525Y-175317961D01*
X124665525Y-175317961D02*
X124665525Y-175270342D01*
X124665525Y-175270342D02*
X124617906Y-175175104D01*
X124617906Y-175175104D02*
X124522668Y-175127485D01*
X124522668Y-175127485D02*
X124379811Y-175127485D01*
X124379811Y-175127485D02*
X124284573Y-175079866D01*
X124284573Y-175079866D02*
X124236954Y-174984628D01*
X124236954Y-174984628D02*
X124236954Y-174937009D01*
X124236954Y-174937009D02*
X124284573Y-174841771D01*
X124284573Y-174841771D02*
X124379811Y-174794152D01*
X124379811Y-174794152D02*
X124522668Y-174794152D01*
X124522668Y-174794152D02*
X124617906Y-174841771D01*
X125475049Y-175413200D02*
X125379811Y-175460819D01*
X125379811Y-175460819D02*
X125189335Y-175460819D01*
X125189335Y-175460819D02*
X125094097Y-175413200D01*
X125094097Y-175413200D02*
X125046478Y-175317961D01*
X125046478Y-175317961D02*
X125046478Y-174937009D01*
X125046478Y-174937009D02*
X125094097Y-174841771D01*
X125094097Y-174841771D02*
X125189335Y-174794152D01*
X125189335Y-174794152D02*
X125379811Y-174794152D01*
X125379811Y-174794152D02*
X125475049Y-174841771D01*
X125475049Y-174841771D02*
X125522668Y-174937009D01*
X125522668Y-174937009D02*
X125522668Y-175032247D01*
X125522668Y-175032247D02*
X125046478Y-175127485D01*
X126379811Y-175460819D02*
X126379811Y-174937009D01*
X126379811Y-174937009D02*
X126332192Y-174841771D01*
X126332192Y-174841771D02*
X126236954Y-174794152D01*
X126236954Y-174794152D02*
X126046478Y-174794152D01*
X126046478Y-174794152D02*
X125951240Y-174841771D01*
X126379811Y-175413200D02*
X126284573Y-175460819D01*
X126284573Y-175460819D02*
X126046478Y-175460819D01*
X126046478Y-175460819D02*
X125951240Y-175413200D01*
X125951240Y-175413200D02*
X125903621Y-175317961D01*
X125903621Y-175317961D02*
X125903621Y-175222723D01*
X125903621Y-175222723D02*
X125951240Y-175127485D01*
X125951240Y-175127485D02*
X126046478Y-175079866D01*
X126046478Y-175079866D02*
X126284573Y-175079866D01*
X126284573Y-175079866D02*
X126379811Y-175032247D01*
X126856002Y-175460819D02*
X126856002Y-174794152D01*
X126856002Y-174984628D02*
X126903621Y-174889390D01*
X126903621Y-174889390D02*
X126951240Y-174841771D01*
X126951240Y-174841771D02*
X127046478Y-174794152D01*
X127046478Y-174794152D02*
X127141716Y-174794152D01*
X127903621Y-175413200D02*
X127808383Y-175460819D01*
X127808383Y-175460819D02*
X127617907Y-175460819D01*
X127617907Y-175460819D02*
X127522669Y-175413200D01*
X127522669Y-175413200D02*
X127475050Y-175365580D01*
X127475050Y-175365580D02*
X127427431Y-175270342D01*
X127427431Y-175270342D02*
X127427431Y-174984628D01*
X127427431Y-174984628D02*
X127475050Y-174889390D01*
X127475050Y-174889390D02*
X127522669Y-174841771D01*
X127522669Y-174841771D02*
X127617907Y-174794152D01*
X127617907Y-174794152D02*
X127808383Y-174794152D01*
X127808383Y-174794152D02*
X127903621Y-174841771D01*
X128332193Y-175460819D02*
X128332193Y-174460819D01*
X128760764Y-175460819D02*
X128760764Y-174937009D01*
X128760764Y-174937009D02*
X128713145Y-174841771D01*
X128713145Y-174841771D02*
X128617907Y-174794152D01*
X128617907Y-174794152D02*
X128475050Y-174794152D01*
X128475050Y-174794152D02*
X128379812Y-174841771D01*
X128379812Y-174841771D02*
X128332193Y-174889390D01*
X129903622Y-174794152D02*
X130141717Y-175460819D01*
X130141717Y-175460819D02*
X130379812Y-174794152D01*
X131284574Y-175460819D02*
X130713146Y-175460819D01*
X130998860Y-175460819D02*
X130998860Y-174460819D01*
X130998860Y-174460819D02*
X130903622Y-174603676D01*
X130903622Y-174603676D02*
X130808384Y-174698914D01*
X130808384Y-174698914D02*
X130713146Y-174746533D01*
X131713146Y-175365580D02*
X131760765Y-175413200D01*
X131760765Y-175413200D02*
X131713146Y-175460819D01*
X131713146Y-175460819D02*
X131665527Y-175413200D01*
X131665527Y-175413200D02*
X131713146Y-175365580D01*
X131713146Y-175365580D02*
X131713146Y-175460819D01*
X132141717Y-174556057D02*
X132189336Y-174508438D01*
X132189336Y-174508438D02*
X132284574Y-174460819D01*
X132284574Y-174460819D02*
X132522669Y-174460819D01*
X132522669Y-174460819D02*
X132617907Y-174508438D01*
X132617907Y-174508438D02*
X132665526Y-174556057D01*
X132665526Y-174556057D02*
X132713145Y-174651295D01*
X132713145Y-174651295D02*
X132713145Y-174746533D01*
X132713145Y-174746533D02*
X132665526Y-174889390D01*
X132665526Y-174889390D02*
X132094098Y-175460819D01*
X132094098Y-175460819D02*
X132713145Y-175460819D01*
X86306819Y-105997237D02*
X85306819Y-105997237D01*
X85306819Y-105997237D02*
X85306819Y-105616285D01*
X85306819Y-105616285D02*
X85354438Y-105521047D01*
X85354438Y-105521047D02*
X85402057Y-105473428D01*
X85402057Y-105473428D02*
X85497295Y-105425809D01*
X85497295Y-105425809D02*
X85640152Y-105425809D01*
X85640152Y-105425809D02*
X85735390Y-105473428D01*
X85735390Y-105473428D02*
X85783009Y-105521047D01*
X85783009Y-105521047D02*
X85830628Y-105616285D01*
X85830628Y-105616285D02*
X85830628Y-105997237D01*
X85640152Y-105092475D02*
X86306819Y-104901999D01*
X86306819Y-104901999D02*
X85830628Y-104711523D01*
X85830628Y-104711523D02*
X86306819Y-104521047D01*
X86306819Y-104521047D02*
X85640152Y-104330571D01*
X86306819Y-103949618D02*
X85640152Y-103949618D01*
X85830628Y-103949618D02*
X85735390Y-103901999D01*
X85735390Y-103901999D02*
X85687771Y-103854380D01*
X85687771Y-103854380D02*
X85640152Y-103759142D01*
X85640152Y-103759142D02*
X85640152Y-103663904D01*
X113117333Y-108546819D02*
X112784000Y-108070628D01*
X112545905Y-108546819D02*
X112545905Y-107546819D01*
X112545905Y-107546819D02*
X112926857Y-107546819D01*
X112926857Y-107546819D02*
X113022095Y-107594438D01*
X113022095Y-107594438D02*
X113069714Y-107642057D01*
X113069714Y-107642057D02*
X113117333Y-107737295D01*
X113117333Y-107737295D02*
X113117333Y-107880152D01*
X113117333Y-107880152D02*
X113069714Y-107975390D01*
X113069714Y-107975390D02*
X113022095Y-108023009D01*
X113022095Y-108023009D02*
X112926857Y-108070628D01*
X112926857Y-108070628D02*
X112545905Y-108070628D01*
X114022095Y-107546819D02*
X113545905Y-107546819D01*
X113545905Y-107546819D02*
X113498286Y-108023009D01*
X113498286Y-108023009D02*
X113545905Y-107975390D01*
X113545905Y-107975390D02*
X113641143Y-107927771D01*
X113641143Y-107927771D02*
X113879238Y-107927771D01*
X113879238Y-107927771D02*
X113974476Y-107975390D01*
X113974476Y-107975390D02*
X114022095Y-108023009D01*
X114022095Y-108023009D02*
X114069714Y-108118247D01*
X114069714Y-108118247D02*
X114069714Y-108356342D01*
X114069714Y-108356342D02*
X114022095Y-108451580D01*
X114022095Y-108451580D02*
X113974476Y-108499200D01*
X113974476Y-108499200D02*
X113879238Y-108546819D01*
X113879238Y-108546819D02*
X113641143Y-108546819D01*
X113641143Y-108546819D02*
X113545905Y-108499200D01*
X113545905Y-108499200D02*
X113498286Y-108451580D01*
X102704819Y-102020666D02*
X102228628Y-102353999D01*
X102704819Y-102592094D02*
X101704819Y-102592094D01*
X101704819Y-102592094D02*
X101704819Y-102211142D01*
X101704819Y-102211142D02*
X101752438Y-102115904D01*
X101752438Y-102115904D02*
X101800057Y-102068285D01*
X101800057Y-102068285D02*
X101895295Y-102020666D01*
X101895295Y-102020666D02*
X102038152Y-102020666D01*
X102038152Y-102020666D02*
X102133390Y-102068285D01*
X102133390Y-102068285D02*
X102181009Y-102115904D01*
X102181009Y-102115904D02*
X102228628Y-102211142D01*
X102228628Y-102211142D02*
X102228628Y-102592094D01*
X102704819Y-101068285D02*
X102704819Y-101639713D01*
X102704819Y-101353999D02*
X101704819Y-101353999D01*
X101704819Y-101353999D02*
X101847676Y-101449237D01*
X101847676Y-101449237D02*
X101942914Y-101544475D01*
X101942914Y-101544475D02*
X101990533Y-101639713D01*
X117094095Y-127724819D02*
X117094095Y-128534342D01*
X117094095Y-128534342D02*
X117141714Y-128629580D01*
X117141714Y-128629580D02*
X117189333Y-128677200D01*
X117189333Y-128677200D02*
X117284571Y-128724819D01*
X117284571Y-128724819D02*
X117475047Y-128724819D01*
X117475047Y-128724819D02*
X117570285Y-128677200D01*
X117570285Y-128677200D02*
X117617904Y-128629580D01*
X117617904Y-128629580D02*
X117665523Y-128534342D01*
X117665523Y-128534342D02*
X117665523Y-127724819D01*
X118570285Y-128058152D02*
X118570285Y-128724819D01*
X118332190Y-127677200D02*
X118094095Y-128391485D01*
X118094095Y-128391485D02*
X118713142Y-128391485D01*
X119442033Y-121193333D02*
X118742033Y-121193333D01*
X118742033Y-121193333D02*
X119242033Y-120960000D01*
X119242033Y-120960000D02*
X118742033Y-120726666D01*
X118742033Y-120726666D02*
X119442033Y-120726666D01*
X119442033Y-120393333D02*
X118742033Y-120393333D01*
X119442033Y-120060000D02*
X118742033Y-120060000D01*
X118742033Y-120060000D02*
X119242033Y-119826667D01*
X119242033Y-119826667D02*
X118742033Y-119593333D01*
X118742033Y-119593333D02*
X119442033Y-119593333D01*
X118742033Y-119326667D02*
X119442033Y-118860000D01*
X118742033Y-118860000D02*
X119442033Y-119326667D01*
X119442033Y-118193333D02*
X119108700Y-118426666D01*
X119442033Y-118593333D02*
X118742033Y-118593333D01*
X118742033Y-118593333D02*
X118742033Y-118326666D01*
X118742033Y-118326666D02*
X118775366Y-118260000D01*
X118775366Y-118260000D02*
X118808700Y-118226666D01*
X118808700Y-118226666D02*
X118875366Y-118193333D01*
X118875366Y-118193333D02*
X118975366Y-118193333D01*
X118975366Y-118193333D02*
X119042033Y-118226666D01*
X119042033Y-118226666D02*
X119075366Y-118260000D01*
X119075366Y-118260000D02*
X119108700Y-118326666D01*
X119108700Y-118326666D02*
X119108700Y-118593333D01*
X118742033Y-117993333D02*
X118742033Y-117593333D01*
X119442033Y-117793333D02*
X118742033Y-117793333D01*
X119442033Y-116993333D02*
X119442033Y-117393333D01*
X119442033Y-117193333D02*
X118742033Y-117193333D01*
X118742033Y-117193333D02*
X118842033Y-117260000D01*
X118842033Y-117260000D02*
X118908700Y-117326667D01*
X118908700Y-117326667D02*
X118942033Y-117393333D01*
X118742033Y-116560000D02*
X118742033Y-116493333D01*
X118742033Y-116493333D02*
X118775366Y-116426666D01*
X118775366Y-116426666D02*
X118808700Y-116393333D01*
X118808700Y-116393333D02*
X118875366Y-116360000D01*
X118875366Y-116360000D02*
X119008700Y-116326666D01*
X119008700Y-116326666D02*
X119175366Y-116326666D01*
X119175366Y-116326666D02*
X119308700Y-116360000D01*
X119308700Y-116360000D02*
X119375366Y-116393333D01*
X119375366Y-116393333D02*
X119408700Y-116426666D01*
X119408700Y-116426666D02*
X119442033Y-116493333D01*
X119442033Y-116493333D02*
X119442033Y-116560000D01*
X119442033Y-116560000D02*
X119408700Y-116626666D01*
X119408700Y-116626666D02*
X119375366Y-116660000D01*
X119375366Y-116660000D02*
X119308700Y-116693333D01*
X119308700Y-116693333D02*
X119175366Y-116726666D01*
X119175366Y-116726666D02*
X119008700Y-116726666D01*
X119008700Y-116726666D02*
X118875366Y-116693333D01*
X118875366Y-116693333D02*
X118808700Y-116660000D01*
X118808700Y-116660000D02*
X118775366Y-116626666D01*
X118775366Y-116626666D02*
X118742033Y-116560000D01*
X118742033Y-115726666D02*
X118742033Y-115859999D01*
X118742033Y-115859999D02*
X118775366Y-115926666D01*
X118775366Y-115926666D02*
X118808700Y-115959999D01*
X118808700Y-115959999D02*
X118908700Y-116026666D01*
X118908700Y-116026666D02*
X119042033Y-116059999D01*
X119042033Y-116059999D02*
X119308700Y-116059999D01*
X119308700Y-116059999D02*
X119375366Y-116026666D01*
X119375366Y-116026666D02*
X119408700Y-115993333D01*
X119408700Y-115993333D02*
X119442033Y-115926666D01*
X119442033Y-115926666D02*
X119442033Y-115793333D01*
X119442033Y-115793333D02*
X119408700Y-115726666D01*
X119408700Y-115726666D02*
X119375366Y-115693333D01*
X119375366Y-115693333D02*
X119308700Y-115659999D01*
X119308700Y-115659999D02*
X119142033Y-115659999D01*
X119142033Y-115659999D02*
X119075366Y-115693333D01*
X119075366Y-115693333D02*
X119042033Y-115726666D01*
X119042033Y-115726666D02*
X119008700Y-115793333D01*
X119008700Y-115793333D02*
X119008700Y-115926666D01*
X119008700Y-115926666D02*
X119042033Y-115993333D01*
X119042033Y-115993333D02*
X119075366Y-116026666D01*
X119075366Y-116026666D02*
X119142033Y-116059999D01*
X118808700Y-115393332D02*
X118775366Y-115359999D01*
X118775366Y-115359999D02*
X118742033Y-115293332D01*
X118742033Y-115293332D02*
X118742033Y-115126666D01*
X118742033Y-115126666D02*
X118775366Y-115059999D01*
X118775366Y-115059999D02*
X118808700Y-115026666D01*
X118808700Y-115026666D02*
X118875366Y-114993332D01*
X118875366Y-114993332D02*
X118942033Y-114993332D01*
X118942033Y-114993332D02*
X119042033Y-115026666D01*
X119042033Y-115026666D02*
X119442033Y-115426666D01*
X119442033Y-115426666D02*
X119442033Y-114993332D01*
X90606952Y-118564819D02*
X90606952Y-117564819D01*
X90606952Y-117564819D02*
X90940285Y-118279104D01*
X90940285Y-118279104D02*
X91273618Y-117564819D01*
X91273618Y-117564819D02*
X91273618Y-118564819D01*
X91749809Y-118564819D02*
X91749809Y-117898152D01*
X91749809Y-117564819D02*
X91702190Y-117612438D01*
X91702190Y-117612438D02*
X91749809Y-117660057D01*
X91749809Y-117660057D02*
X91797428Y-117612438D01*
X91797428Y-117612438D02*
X91749809Y-117564819D01*
X91749809Y-117564819D02*
X91749809Y-117660057D01*
X92654570Y-118517200D02*
X92559332Y-118564819D01*
X92559332Y-118564819D02*
X92368856Y-118564819D01*
X92368856Y-118564819D02*
X92273618Y-118517200D01*
X92273618Y-118517200D02*
X92225999Y-118469580D01*
X92225999Y-118469580D02*
X92178380Y-118374342D01*
X92178380Y-118374342D02*
X92178380Y-118088628D01*
X92178380Y-118088628D02*
X92225999Y-117993390D01*
X92225999Y-117993390D02*
X92273618Y-117945771D01*
X92273618Y-117945771D02*
X92368856Y-117898152D01*
X92368856Y-117898152D02*
X92559332Y-117898152D01*
X92559332Y-117898152D02*
X92654570Y-117945771D01*
X93083142Y-118564819D02*
X93083142Y-117898152D01*
X93083142Y-118088628D02*
X93130761Y-117993390D01*
X93130761Y-117993390D02*
X93178380Y-117945771D01*
X93178380Y-117945771D02*
X93273618Y-117898152D01*
X93273618Y-117898152D02*
X93368856Y-117898152D01*
X93845047Y-118564819D02*
X93749809Y-118517200D01*
X93749809Y-118517200D02*
X93702190Y-118469580D01*
X93702190Y-118469580D02*
X93654571Y-118374342D01*
X93654571Y-118374342D02*
X93654571Y-118088628D01*
X93654571Y-118088628D02*
X93702190Y-117993390D01*
X93702190Y-117993390D02*
X93749809Y-117945771D01*
X93749809Y-117945771D02*
X93845047Y-117898152D01*
X93845047Y-117898152D02*
X93987904Y-117898152D01*
X93987904Y-117898152D02*
X94083142Y-117945771D01*
X94083142Y-117945771D02*
X94130761Y-117993390D01*
X94130761Y-117993390D02*
X94178380Y-118088628D01*
X94178380Y-118088628D02*
X94178380Y-118374342D01*
X94178380Y-118374342D02*
X94130761Y-118469580D01*
X94130761Y-118469580D02*
X94083142Y-118517200D01*
X94083142Y-118517200D02*
X93987904Y-118564819D01*
X93987904Y-118564819D02*
X93845047Y-118564819D01*
X95321238Y-118517200D02*
X95464095Y-118564819D01*
X95464095Y-118564819D02*
X95702190Y-118564819D01*
X95702190Y-118564819D02*
X95797428Y-118517200D01*
X95797428Y-118517200D02*
X95845047Y-118469580D01*
X95845047Y-118469580D02*
X95892666Y-118374342D01*
X95892666Y-118374342D02*
X95892666Y-118279104D01*
X95892666Y-118279104D02*
X95845047Y-118183866D01*
X95845047Y-118183866D02*
X95797428Y-118136247D01*
X95797428Y-118136247D02*
X95702190Y-118088628D01*
X95702190Y-118088628D02*
X95511714Y-118041009D01*
X95511714Y-118041009D02*
X95416476Y-117993390D01*
X95416476Y-117993390D02*
X95368857Y-117945771D01*
X95368857Y-117945771D02*
X95321238Y-117850533D01*
X95321238Y-117850533D02*
X95321238Y-117755295D01*
X95321238Y-117755295D02*
X95368857Y-117660057D01*
X95368857Y-117660057D02*
X95416476Y-117612438D01*
X95416476Y-117612438D02*
X95511714Y-117564819D01*
X95511714Y-117564819D02*
X95749809Y-117564819D01*
X95749809Y-117564819D02*
X95892666Y-117612438D01*
X96321238Y-118564819D02*
X96321238Y-117564819D01*
X96321238Y-117564819D02*
X96559333Y-117564819D01*
X96559333Y-117564819D02*
X96702190Y-117612438D01*
X96702190Y-117612438D02*
X96797428Y-117707676D01*
X96797428Y-117707676D02*
X96845047Y-117802914D01*
X96845047Y-117802914D02*
X96892666Y-117993390D01*
X96892666Y-117993390D02*
X96892666Y-118136247D01*
X96892666Y-118136247D02*
X96845047Y-118326723D01*
X96845047Y-118326723D02*
X96797428Y-118421961D01*
X96797428Y-118421961D02*
X96702190Y-118517200D01*
X96702190Y-118517200D02*
X96559333Y-118564819D01*
X96559333Y-118564819D02*
X96321238Y-118564819D01*
X143980819Y-119371904D02*
X144790342Y-119371904D01*
X144790342Y-119371904D02*
X144885580Y-119324285D01*
X144885580Y-119324285D02*
X144933200Y-119276666D01*
X144933200Y-119276666D02*
X144980819Y-119181428D01*
X144980819Y-119181428D02*
X144980819Y-118990952D01*
X144980819Y-118990952D02*
X144933200Y-118895714D01*
X144933200Y-118895714D02*
X144885580Y-118848095D01*
X144885580Y-118848095D02*
X144790342Y-118800476D01*
X144790342Y-118800476D02*
X143980819Y-118800476D01*
X144933200Y-118371904D02*
X144980819Y-118229047D01*
X144980819Y-118229047D02*
X144980819Y-117990952D01*
X144980819Y-117990952D02*
X144933200Y-117895714D01*
X144933200Y-117895714D02*
X144885580Y-117848095D01*
X144885580Y-117848095D02*
X144790342Y-117800476D01*
X144790342Y-117800476D02*
X144695104Y-117800476D01*
X144695104Y-117800476D02*
X144599866Y-117848095D01*
X144599866Y-117848095D02*
X144552247Y-117895714D01*
X144552247Y-117895714D02*
X144504628Y-117990952D01*
X144504628Y-117990952D02*
X144457009Y-118181428D01*
X144457009Y-118181428D02*
X144409390Y-118276666D01*
X144409390Y-118276666D02*
X144361771Y-118324285D01*
X144361771Y-118324285D02*
X144266533Y-118371904D01*
X144266533Y-118371904D02*
X144171295Y-118371904D01*
X144171295Y-118371904D02*
X144076057Y-118324285D01*
X144076057Y-118324285D02*
X144028438Y-118276666D01*
X144028438Y-118276666D02*
X143980819Y-118181428D01*
X143980819Y-118181428D02*
X143980819Y-117943333D01*
X143980819Y-117943333D02*
X144028438Y-117800476D01*
X144457009Y-117038571D02*
X144504628Y-116895714D01*
X144504628Y-116895714D02*
X144552247Y-116848095D01*
X144552247Y-116848095D02*
X144647485Y-116800476D01*
X144647485Y-116800476D02*
X144790342Y-116800476D01*
X144790342Y-116800476D02*
X144885580Y-116848095D01*
X144885580Y-116848095D02*
X144933200Y-116895714D01*
X144933200Y-116895714D02*
X144980819Y-116990952D01*
X144980819Y-116990952D02*
X144980819Y-117371904D01*
X144980819Y-117371904D02*
X143980819Y-117371904D01*
X143980819Y-117371904D02*
X143980819Y-117038571D01*
X143980819Y-117038571D02*
X144028438Y-116943333D01*
X144028438Y-116943333D02*
X144076057Y-116895714D01*
X144076057Y-116895714D02*
X144171295Y-116848095D01*
X144171295Y-116848095D02*
X144266533Y-116848095D01*
X144266533Y-116848095D02*
X144361771Y-116895714D01*
X144361771Y-116895714D02*
X144409390Y-116943333D01*
X144409390Y-116943333D02*
X144457009Y-117038571D01*
X144457009Y-117038571D02*
X144457009Y-117371904D01*
X129852009Y-124243743D02*
X129852009Y-123910410D01*
X130375819Y-123767553D02*
X130375819Y-124243743D01*
X130375819Y-124243743D02*
X129375819Y-124243743D01*
X129375819Y-124243743D02*
X129375819Y-123767553D01*
X129709152Y-123481838D02*
X129709152Y-123100886D01*
X129375819Y-123338981D02*
X130232961Y-123338981D01*
X130232961Y-123338981D02*
X130328200Y-123291362D01*
X130328200Y-123291362D02*
X130375819Y-123196124D01*
X130375819Y-123196124D02*
X130375819Y-123100886D01*
X130375819Y-122767552D02*
X129375819Y-122767552D01*
X130375819Y-122338981D02*
X129852009Y-122338981D01*
X129852009Y-122338981D02*
X129756771Y-122386600D01*
X129756771Y-122386600D02*
X129709152Y-122481838D01*
X129709152Y-122481838D02*
X129709152Y-122624695D01*
X129709152Y-122624695D02*
X129756771Y-122719933D01*
X129756771Y-122719933D02*
X129804390Y-122767552D01*
X130328200Y-121481838D02*
X130375819Y-121577076D01*
X130375819Y-121577076D02*
X130375819Y-121767552D01*
X130375819Y-121767552D02*
X130328200Y-121862790D01*
X130328200Y-121862790D02*
X130232961Y-121910409D01*
X130232961Y-121910409D02*
X129852009Y-121910409D01*
X129852009Y-121910409D02*
X129756771Y-121862790D01*
X129756771Y-121862790D02*
X129709152Y-121767552D01*
X129709152Y-121767552D02*
X129709152Y-121577076D01*
X129709152Y-121577076D02*
X129756771Y-121481838D01*
X129756771Y-121481838D02*
X129852009Y-121434219D01*
X129852009Y-121434219D02*
X129947247Y-121434219D01*
X129947247Y-121434219D02*
X130042485Y-121910409D01*
X130375819Y-121005647D02*
X129709152Y-121005647D01*
X129899628Y-121005647D02*
X129804390Y-120958028D01*
X129804390Y-120958028D02*
X129756771Y-120910409D01*
X129756771Y-120910409D02*
X129709152Y-120815171D01*
X129709152Y-120815171D02*
X129709152Y-120719933D01*
X129709152Y-120386599D02*
X130375819Y-120386599D01*
X129804390Y-120386599D02*
X129756771Y-120338980D01*
X129756771Y-120338980D02*
X129709152Y-120243742D01*
X129709152Y-120243742D02*
X129709152Y-120100885D01*
X129709152Y-120100885D02*
X129756771Y-120005647D01*
X129756771Y-120005647D02*
X129852009Y-119958028D01*
X129852009Y-119958028D02*
X130375819Y-119958028D01*
X130328200Y-119100885D02*
X130375819Y-119196123D01*
X130375819Y-119196123D02*
X130375819Y-119386599D01*
X130375819Y-119386599D02*
X130328200Y-119481837D01*
X130328200Y-119481837D02*
X130232961Y-119529456D01*
X130232961Y-119529456D02*
X129852009Y-119529456D01*
X129852009Y-119529456D02*
X129756771Y-119481837D01*
X129756771Y-119481837D02*
X129709152Y-119386599D01*
X129709152Y-119386599D02*
X129709152Y-119196123D01*
X129709152Y-119196123D02*
X129756771Y-119100885D01*
X129756771Y-119100885D02*
X129852009Y-119053266D01*
X129852009Y-119053266D02*
X129947247Y-119053266D01*
X129947247Y-119053266D02*
X130042485Y-119529456D01*
X129709152Y-118767551D02*
X129709152Y-118386599D01*
X129375819Y-118624694D02*
X130232961Y-118624694D01*
X130232961Y-118624694D02*
X130328200Y-118577075D01*
X130328200Y-118577075D02*
X130375819Y-118481837D01*
X130375819Y-118481837D02*
X130375819Y-118386599D01*
X133012276Y-115075619D02*
X133012276Y-115885142D01*
X133012276Y-115885142D02*
X133059895Y-115980380D01*
X133059895Y-115980380D02*
X133107514Y-116028000D01*
X133107514Y-116028000D02*
X133202752Y-116075619D01*
X133202752Y-116075619D02*
X133393228Y-116075619D01*
X133393228Y-116075619D02*
X133488466Y-116028000D01*
X133488466Y-116028000D02*
X133536085Y-115980380D01*
X133536085Y-115980380D02*
X133583704Y-115885142D01*
X133583704Y-115885142D02*
X133583704Y-115075619D01*
X134012276Y-116028000D02*
X134155133Y-116075619D01*
X134155133Y-116075619D02*
X134393228Y-116075619D01*
X134393228Y-116075619D02*
X134488466Y-116028000D01*
X134488466Y-116028000D02*
X134536085Y-115980380D01*
X134536085Y-115980380D02*
X134583704Y-115885142D01*
X134583704Y-115885142D02*
X134583704Y-115789904D01*
X134583704Y-115789904D02*
X134536085Y-115694666D01*
X134536085Y-115694666D02*
X134488466Y-115647047D01*
X134488466Y-115647047D02*
X134393228Y-115599428D01*
X134393228Y-115599428D02*
X134202752Y-115551809D01*
X134202752Y-115551809D02*
X134107514Y-115504190D01*
X134107514Y-115504190D02*
X134059895Y-115456571D01*
X134059895Y-115456571D02*
X134012276Y-115361333D01*
X134012276Y-115361333D02*
X134012276Y-115266095D01*
X134012276Y-115266095D02*
X134059895Y-115170857D01*
X134059895Y-115170857D02*
X134107514Y-115123238D01*
X134107514Y-115123238D02*
X134202752Y-115075619D01*
X134202752Y-115075619D02*
X134440847Y-115075619D01*
X134440847Y-115075619D02*
X134583704Y-115123238D01*
X135345609Y-115551809D02*
X135488466Y-115599428D01*
X135488466Y-115599428D02*
X135536085Y-115647047D01*
X135536085Y-115647047D02*
X135583704Y-115742285D01*
X135583704Y-115742285D02*
X135583704Y-115885142D01*
X135583704Y-115885142D02*
X135536085Y-115980380D01*
X135536085Y-115980380D02*
X135488466Y-116028000D01*
X135488466Y-116028000D02*
X135393228Y-116075619D01*
X135393228Y-116075619D02*
X135012276Y-116075619D01*
X135012276Y-116075619D02*
X135012276Y-115075619D01*
X135012276Y-115075619D02*
X135345609Y-115075619D01*
X135345609Y-115075619D02*
X135440847Y-115123238D01*
X135440847Y-115123238D02*
X135488466Y-115170857D01*
X135488466Y-115170857D02*
X135536085Y-115266095D01*
X135536085Y-115266095D02*
X135536085Y-115361333D01*
X135536085Y-115361333D02*
X135488466Y-115456571D01*
X135488466Y-115456571D02*
X135440847Y-115504190D01*
X135440847Y-115504190D02*
X135345609Y-115551809D01*
X135345609Y-115551809D02*
X135012276Y-115551809D01*
X136774181Y-116075619D02*
X136774181Y-115075619D01*
X136774181Y-115551809D02*
X137345609Y-115551809D01*
X137345609Y-116075619D02*
X137345609Y-115075619D01*
X137964657Y-116075619D02*
X137869419Y-116028000D01*
X137869419Y-116028000D02*
X137821800Y-115980380D01*
X137821800Y-115980380D02*
X137774181Y-115885142D01*
X137774181Y-115885142D02*
X137774181Y-115599428D01*
X137774181Y-115599428D02*
X137821800Y-115504190D01*
X137821800Y-115504190D02*
X137869419Y-115456571D01*
X137869419Y-115456571D02*
X137964657Y-115408952D01*
X137964657Y-115408952D02*
X138107514Y-115408952D01*
X138107514Y-115408952D02*
X138202752Y-115456571D01*
X138202752Y-115456571D02*
X138250371Y-115504190D01*
X138250371Y-115504190D02*
X138297990Y-115599428D01*
X138297990Y-115599428D02*
X138297990Y-115885142D01*
X138297990Y-115885142D02*
X138250371Y-115980380D01*
X138250371Y-115980380D02*
X138202752Y-116028000D01*
X138202752Y-116028000D02*
X138107514Y-116075619D01*
X138107514Y-116075619D02*
X137964657Y-116075619D01*
X138678943Y-116028000D02*
X138774181Y-116075619D01*
X138774181Y-116075619D02*
X138964657Y-116075619D01*
X138964657Y-116075619D02*
X139059895Y-116028000D01*
X139059895Y-116028000D02*
X139107514Y-115932761D01*
X139107514Y-115932761D02*
X139107514Y-115885142D01*
X139107514Y-115885142D02*
X139059895Y-115789904D01*
X139059895Y-115789904D02*
X138964657Y-115742285D01*
X138964657Y-115742285D02*
X138821800Y-115742285D01*
X138821800Y-115742285D02*
X138726562Y-115694666D01*
X138726562Y-115694666D02*
X138678943Y-115599428D01*
X138678943Y-115599428D02*
X138678943Y-115551809D01*
X138678943Y-115551809D02*
X138726562Y-115456571D01*
X138726562Y-115456571D02*
X138821800Y-115408952D01*
X138821800Y-115408952D02*
X138964657Y-115408952D01*
X138964657Y-115408952D02*
X139059895Y-115456571D01*
X139393229Y-115408952D02*
X139774181Y-115408952D01*
X139536086Y-115075619D02*
X139536086Y-115932761D01*
X139536086Y-115932761D02*
X139583705Y-116028000D01*
X139583705Y-116028000D02*
X139678943Y-116075619D01*
X139678943Y-116075619D02*
X139774181Y-116075619D01*
X120712033Y-119673333D02*
X120012033Y-119673333D01*
X120012033Y-119673333D02*
X120012033Y-119506666D01*
X120012033Y-119506666D02*
X120045366Y-119406666D01*
X120045366Y-119406666D02*
X120112033Y-119340000D01*
X120112033Y-119340000D02*
X120178700Y-119306666D01*
X120178700Y-119306666D02*
X120312033Y-119273333D01*
X120312033Y-119273333D02*
X120412033Y-119273333D01*
X120412033Y-119273333D02*
X120545366Y-119306666D01*
X120545366Y-119306666D02*
X120612033Y-119340000D01*
X120612033Y-119340000D02*
X120678700Y-119406666D01*
X120678700Y-119406666D02*
X120712033Y-119506666D01*
X120712033Y-119506666D02*
X120712033Y-119673333D01*
X120012033Y-119073333D02*
X120712033Y-118840000D01*
X120712033Y-118840000D02*
X120012033Y-118606666D01*
X120012033Y-118173333D02*
X120512033Y-118173333D01*
X120512033Y-118173333D02*
X120612033Y-118206666D01*
X120612033Y-118206666D02*
X120678700Y-118273333D01*
X120678700Y-118273333D02*
X120712033Y-118373333D01*
X120712033Y-118373333D02*
X120712033Y-118440000D01*
X120012033Y-117540000D02*
X120012033Y-117673333D01*
X120012033Y-117673333D02*
X120045366Y-117740000D01*
X120045366Y-117740000D02*
X120078700Y-117773333D01*
X120078700Y-117773333D02*
X120178700Y-117840000D01*
X120178700Y-117840000D02*
X120312033Y-117873333D01*
X120312033Y-117873333D02*
X120578700Y-117873333D01*
X120578700Y-117873333D02*
X120645366Y-117840000D01*
X120645366Y-117840000D02*
X120678700Y-117806667D01*
X120678700Y-117806667D02*
X120712033Y-117740000D01*
X120712033Y-117740000D02*
X120712033Y-117606667D01*
X120712033Y-117606667D02*
X120678700Y-117540000D01*
X120678700Y-117540000D02*
X120645366Y-117506667D01*
X120645366Y-117506667D02*
X120578700Y-117473333D01*
X120578700Y-117473333D02*
X120412033Y-117473333D01*
X120412033Y-117473333D02*
X120345366Y-117506667D01*
X120345366Y-117506667D02*
X120312033Y-117540000D01*
X120312033Y-117540000D02*
X120278700Y-117606667D01*
X120278700Y-117606667D02*
X120278700Y-117740000D01*
X120278700Y-117740000D02*
X120312033Y-117806667D01*
X120312033Y-117806667D02*
X120345366Y-117840000D01*
X120345366Y-117840000D02*
X120412033Y-117873333D01*
X120512033Y-117206666D02*
X120512033Y-116873333D01*
X120712033Y-117273333D02*
X120012033Y-117040000D01*
X120012033Y-117040000D02*
X120712033Y-116806666D01*
X92484905Y-105991819D02*
X92484905Y-104991819D01*
X92484905Y-104991819D02*
X92723000Y-104991819D01*
X92723000Y-104991819D02*
X92865857Y-105039438D01*
X92865857Y-105039438D02*
X92961095Y-105134676D01*
X92961095Y-105134676D02*
X93008714Y-105229914D01*
X93008714Y-105229914D02*
X93056333Y-105420390D01*
X93056333Y-105420390D02*
X93056333Y-105563247D01*
X93056333Y-105563247D02*
X93008714Y-105753723D01*
X93008714Y-105753723D02*
X92961095Y-105848961D01*
X92961095Y-105848961D02*
X92865857Y-105944200D01*
X92865857Y-105944200D02*
X92723000Y-105991819D01*
X92723000Y-105991819D02*
X92484905Y-105991819D01*
X93437286Y-105087057D02*
X93484905Y-105039438D01*
X93484905Y-105039438D02*
X93580143Y-104991819D01*
X93580143Y-104991819D02*
X93818238Y-104991819D01*
X93818238Y-104991819D02*
X93913476Y-105039438D01*
X93913476Y-105039438D02*
X93961095Y-105087057D01*
X93961095Y-105087057D02*
X94008714Y-105182295D01*
X94008714Y-105182295D02*
X94008714Y-105277533D01*
X94008714Y-105277533D02*
X93961095Y-105420390D01*
X93961095Y-105420390D02*
X93389667Y-105991819D01*
X93389667Y-105991819D02*
X94008714Y-105991819D01*
X132165200Y-100393332D02*
X132212819Y-100250475D01*
X132212819Y-100250475D02*
X132212819Y-100012380D01*
X132212819Y-100012380D02*
X132165200Y-99917142D01*
X132165200Y-99917142D02*
X132117580Y-99869523D01*
X132117580Y-99869523D02*
X132022342Y-99821904D01*
X132022342Y-99821904D02*
X131927104Y-99821904D01*
X131927104Y-99821904D02*
X131831866Y-99869523D01*
X131831866Y-99869523D02*
X131784247Y-99917142D01*
X131784247Y-99917142D02*
X131736628Y-100012380D01*
X131736628Y-100012380D02*
X131689009Y-100202856D01*
X131689009Y-100202856D02*
X131641390Y-100298094D01*
X131641390Y-100298094D02*
X131593771Y-100345713D01*
X131593771Y-100345713D02*
X131498533Y-100393332D01*
X131498533Y-100393332D02*
X131403295Y-100393332D01*
X131403295Y-100393332D02*
X131308057Y-100345713D01*
X131308057Y-100345713D02*
X131260438Y-100298094D01*
X131260438Y-100298094D02*
X131212819Y-100202856D01*
X131212819Y-100202856D02*
X131212819Y-99964761D01*
X131212819Y-99964761D02*
X131260438Y-99821904D01*
X131212819Y-99488570D02*
X132212819Y-99250475D01*
X132212819Y-99250475D02*
X131498533Y-99059999D01*
X131498533Y-99059999D02*
X132212819Y-98869523D01*
X132212819Y-98869523D02*
X131212819Y-98631428D01*
X132212819Y-97726666D02*
X132212819Y-98298094D01*
X132212819Y-98012380D02*
X131212819Y-98012380D01*
X131212819Y-98012380D02*
X131355676Y-98107618D01*
X131355676Y-98107618D02*
X131450914Y-98202856D01*
X131450914Y-98202856D02*
X131498533Y-98298094D01*
X113117333Y-100672819D02*
X112784000Y-100196628D01*
X112545905Y-100672819D02*
X112545905Y-99672819D01*
X112545905Y-99672819D02*
X112926857Y-99672819D01*
X112926857Y-99672819D02*
X113022095Y-99720438D01*
X113022095Y-99720438D02*
X113069714Y-99768057D01*
X113069714Y-99768057D02*
X113117333Y-99863295D01*
X113117333Y-99863295D02*
X113117333Y-100006152D01*
X113117333Y-100006152D02*
X113069714Y-100101390D01*
X113069714Y-100101390D02*
X113022095Y-100149009D01*
X113022095Y-100149009D02*
X112926857Y-100196628D01*
X112926857Y-100196628D02*
X112545905Y-100196628D01*
X113450667Y-99672819D02*
X114069714Y-99672819D01*
X114069714Y-99672819D02*
X113736381Y-100053771D01*
X113736381Y-100053771D02*
X113879238Y-100053771D01*
X113879238Y-100053771D02*
X113974476Y-100101390D01*
X113974476Y-100101390D02*
X114022095Y-100149009D01*
X114022095Y-100149009D02*
X114069714Y-100244247D01*
X114069714Y-100244247D02*
X114069714Y-100482342D01*
X114069714Y-100482342D02*
X114022095Y-100577580D01*
X114022095Y-100577580D02*
X113974476Y-100625200D01*
X113974476Y-100625200D02*
X113879238Y-100672819D01*
X113879238Y-100672819D02*
X113593524Y-100672819D01*
X113593524Y-100672819D02*
X113498286Y-100625200D01*
X113498286Y-100625200D02*
X113450667Y-100577580D01*
X152485200Y-100393332D02*
X152532819Y-100250475D01*
X152532819Y-100250475D02*
X152532819Y-100012380D01*
X152532819Y-100012380D02*
X152485200Y-99917142D01*
X152485200Y-99917142D02*
X152437580Y-99869523D01*
X152437580Y-99869523D02*
X152342342Y-99821904D01*
X152342342Y-99821904D02*
X152247104Y-99821904D01*
X152247104Y-99821904D02*
X152151866Y-99869523D01*
X152151866Y-99869523D02*
X152104247Y-99917142D01*
X152104247Y-99917142D02*
X152056628Y-100012380D01*
X152056628Y-100012380D02*
X152009009Y-100202856D01*
X152009009Y-100202856D02*
X151961390Y-100298094D01*
X151961390Y-100298094D02*
X151913771Y-100345713D01*
X151913771Y-100345713D02*
X151818533Y-100393332D01*
X151818533Y-100393332D02*
X151723295Y-100393332D01*
X151723295Y-100393332D02*
X151628057Y-100345713D01*
X151628057Y-100345713D02*
X151580438Y-100298094D01*
X151580438Y-100298094D02*
X151532819Y-100202856D01*
X151532819Y-100202856D02*
X151532819Y-99964761D01*
X151532819Y-99964761D02*
X151580438Y-99821904D01*
X151532819Y-99488570D02*
X152532819Y-99250475D01*
X152532819Y-99250475D02*
X151818533Y-99059999D01*
X151818533Y-99059999D02*
X152532819Y-98869523D01*
X152532819Y-98869523D02*
X151532819Y-98631428D01*
X151532819Y-98345713D02*
X151532819Y-97726666D01*
X151532819Y-97726666D02*
X151913771Y-98059999D01*
X151913771Y-98059999D02*
X151913771Y-97917142D01*
X151913771Y-97917142D02*
X151961390Y-97821904D01*
X151961390Y-97821904D02*
X152009009Y-97774285D01*
X152009009Y-97774285D02*
X152104247Y-97726666D01*
X152104247Y-97726666D02*
X152342342Y-97726666D01*
X152342342Y-97726666D02*
X152437580Y-97774285D01*
X152437580Y-97774285D02*
X152485200Y-97821904D01*
X152485200Y-97821904D02*
X152532819Y-97917142D01*
X152532819Y-97917142D02*
X152532819Y-98202856D01*
X152532819Y-98202856D02*
X152485200Y-98298094D01*
X152485200Y-98298094D02*
X152437580Y-98345713D01*
X142325200Y-100393332D02*
X142372819Y-100250475D01*
X142372819Y-100250475D02*
X142372819Y-100012380D01*
X142372819Y-100012380D02*
X142325200Y-99917142D01*
X142325200Y-99917142D02*
X142277580Y-99869523D01*
X142277580Y-99869523D02*
X142182342Y-99821904D01*
X142182342Y-99821904D02*
X142087104Y-99821904D01*
X142087104Y-99821904D02*
X141991866Y-99869523D01*
X141991866Y-99869523D02*
X141944247Y-99917142D01*
X141944247Y-99917142D02*
X141896628Y-100012380D01*
X141896628Y-100012380D02*
X141849009Y-100202856D01*
X141849009Y-100202856D02*
X141801390Y-100298094D01*
X141801390Y-100298094D02*
X141753771Y-100345713D01*
X141753771Y-100345713D02*
X141658533Y-100393332D01*
X141658533Y-100393332D02*
X141563295Y-100393332D01*
X141563295Y-100393332D02*
X141468057Y-100345713D01*
X141468057Y-100345713D02*
X141420438Y-100298094D01*
X141420438Y-100298094D02*
X141372819Y-100202856D01*
X141372819Y-100202856D02*
X141372819Y-99964761D01*
X141372819Y-99964761D02*
X141420438Y-99821904D01*
X141372819Y-99488570D02*
X142372819Y-99250475D01*
X142372819Y-99250475D02*
X141658533Y-99059999D01*
X141658533Y-99059999D02*
X142372819Y-98869523D01*
X142372819Y-98869523D02*
X141372819Y-98631428D01*
X141468057Y-98298094D02*
X141420438Y-98250475D01*
X141420438Y-98250475D02*
X141372819Y-98155237D01*
X141372819Y-98155237D02*
X141372819Y-97917142D01*
X141372819Y-97917142D02*
X141420438Y-97821904D01*
X141420438Y-97821904D02*
X141468057Y-97774285D01*
X141468057Y-97774285D02*
X141563295Y-97726666D01*
X141563295Y-97726666D02*
X141658533Y-97726666D01*
X141658533Y-97726666D02*
X141801390Y-97774285D01*
X141801390Y-97774285D02*
X142372819Y-98345713D01*
X142372819Y-98345713D02*
X142372819Y-97726666D01*
X99242819Y-134699333D02*
X99957104Y-134699333D01*
X99957104Y-134699333D02*
X100099961Y-134746952D01*
X100099961Y-134746952D02*
X100195200Y-134842190D01*
X100195200Y-134842190D02*
X100242819Y-134985047D01*
X100242819Y-134985047D02*
X100242819Y-135080285D01*
X99338057Y-134270761D02*
X99290438Y-134223142D01*
X99290438Y-134223142D02*
X99242819Y-134127904D01*
X99242819Y-134127904D02*
X99242819Y-133889809D01*
X99242819Y-133889809D02*
X99290438Y-133794571D01*
X99290438Y-133794571D02*
X99338057Y-133746952D01*
X99338057Y-133746952D02*
X99433295Y-133699333D01*
X99433295Y-133699333D02*
X99528533Y-133699333D01*
X99528533Y-133699333D02*
X99671390Y-133746952D01*
X99671390Y-133746952D02*
X100242819Y-134318380D01*
X100242819Y-134318380D02*
X100242819Y-133699333D01*
X99864570Y-130518819D02*
X100055046Y-130518819D01*
X100055046Y-130518819D02*
X100150284Y-130566438D01*
X100150284Y-130566438D02*
X100245522Y-130661676D01*
X100245522Y-130661676D02*
X100293141Y-130852152D01*
X100293141Y-130852152D02*
X100293141Y-131185485D01*
X100293141Y-131185485D02*
X100245522Y-131375961D01*
X100245522Y-131375961D02*
X100150284Y-131471200D01*
X100150284Y-131471200D02*
X100055046Y-131518819D01*
X100055046Y-131518819D02*
X99864570Y-131518819D01*
X99864570Y-131518819D02*
X99769332Y-131471200D01*
X99769332Y-131471200D02*
X99674094Y-131375961D01*
X99674094Y-131375961D02*
X99626475Y-131185485D01*
X99626475Y-131185485D02*
X99626475Y-130852152D01*
X99626475Y-130852152D02*
X99674094Y-130661676D01*
X99674094Y-130661676D02*
X99769332Y-130566438D01*
X99769332Y-130566438D02*
X99864570Y-130518819D01*
X100864570Y-131518819D02*
X100769332Y-131471200D01*
X100769332Y-131471200D02*
X100721713Y-131375961D01*
X100721713Y-131375961D02*
X100721713Y-130518819D01*
X101626475Y-131471200D02*
X101531237Y-131518819D01*
X101531237Y-131518819D02*
X101340761Y-131518819D01*
X101340761Y-131518819D02*
X101245523Y-131471200D01*
X101245523Y-131471200D02*
X101197904Y-131375961D01*
X101197904Y-131375961D02*
X101197904Y-130995009D01*
X101197904Y-130995009D02*
X101245523Y-130899771D01*
X101245523Y-130899771D02*
X101340761Y-130852152D01*
X101340761Y-130852152D02*
X101531237Y-130852152D01*
X101531237Y-130852152D02*
X101626475Y-130899771D01*
X101626475Y-130899771D02*
X101674094Y-130995009D01*
X101674094Y-130995009D02*
X101674094Y-131090247D01*
X101674094Y-131090247D02*
X101197904Y-131185485D01*
X102531237Y-131518819D02*
X102531237Y-130518819D01*
X102531237Y-131471200D02*
X102435999Y-131518819D01*
X102435999Y-131518819D02*
X102245523Y-131518819D01*
X102245523Y-131518819D02*
X102150285Y-131471200D01*
X102150285Y-131471200D02*
X102102666Y-131423580D01*
X102102666Y-131423580D02*
X102055047Y-131328342D01*
X102055047Y-131328342D02*
X102055047Y-131042628D01*
X102055047Y-131042628D02*
X102102666Y-130947390D01*
X102102666Y-130947390D02*
X102150285Y-130899771D01*
X102150285Y-130899771D02*
X102245523Y-130852152D01*
X102245523Y-130852152D02*
X102435999Y-130852152D01*
X102435999Y-130852152D02*
X102531237Y-130899771D01*
X103959809Y-130518819D02*
X104055047Y-130518819D01*
X104055047Y-130518819D02*
X104150285Y-130566438D01*
X104150285Y-130566438D02*
X104197904Y-130614057D01*
X104197904Y-130614057D02*
X104245523Y-130709295D01*
X104245523Y-130709295D02*
X104293142Y-130899771D01*
X104293142Y-130899771D02*
X104293142Y-131137866D01*
X104293142Y-131137866D02*
X104245523Y-131328342D01*
X104245523Y-131328342D02*
X104197904Y-131423580D01*
X104197904Y-131423580D02*
X104150285Y-131471200D01*
X104150285Y-131471200D02*
X104055047Y-131518819D01*
X104055047Y-131518819D02*
X103959809Y-131518819D01*
X103959809Y-131518819D02*
X103864571Y-131471200D01*
X103864571Y-131471200D02*
X103816952Y-131423580D01*
X103816952Y-131423580D02*
X103769333Y-131328342D01*
X103769333Y-131328342D02*
X103721714Y-131137866D01*
X103721714Y-131137866D02*
X103721714Y-130899771D01*
X103721714Y-130899771D02*
X103769333Y-130709295D01*
X103769333Y-130709295D02*
X103816952Y-130614057D01*
X103816952Y-130614057D02*
X103864571Y-130566438D01*
X103864571Y-130566438D02*
X103959809Y-130518819D01*
X104721714Y-131423580D02*
X104769333Y-131471200D01*
X104769333Y-131471200D02*
X104721714Y-131518819D01*
X104721714Y-131518819D02*
X104674095Y-131471200D01*
X104674095Y-131471200D02*
X104721714Y-131423580D01*
X104721714Y-131423580D02*
X104721714Y-131518819D01*
X105245523Y-131518819D02*
X105435999Y-131518819D01*
X105435999Y-131518819D02*
X105531237Y-131471200D01*
X105531237Y-131471200D02*
X105578856Y-131423580D01*
X105578856Y-131423580D02*
X105674094Y-131280723D01*
X105674094Y-131280723D02*
X105721713Y-131090247D01*
X105721713Y-131090247D02*
X105721713Y-130709295D01*
X105721713Y-130709295D02*
X105674094Y-130614057D01*
X105674094Y-130614057D02*
X105626475Y-130566438D01*
X105626475Y-130566438D02*
X105531237Y-130518819D01*
X105531237Y-130518819D02*
X105340761Y-130518819D01*
X105340761Y-130518819D02*
X105245523Y-130566438D01*
X105245523Y-130566438D02*
X105197904Y-130614057D01*
X105197904Y-130614057D02*
X105150285Y-130709295D01*
X105150285Y-130709295D02*
X105150285Y-130947390D01*
X105150285Y-130947390D02*
X105197904Y-131042628D01*
X105197904Y-131042628D02*
X105245523Y-131090247D01*
X105245523Y-131090247D02*
X105340761Y-131137866D01*
X105340761Y-131137866D02*
X105531237Y-131137866D01*
X105531237Y-131137866D02*
X105626475Y-131090247D01*
X105626475Y-131090247D02*
X105674094Y-131042628D01*
X105674094Y-131042628D02*
X105721713Y-130947390D01*
X106674094Y-131518819D02*
X106102666Y-131518819D01*
X106388380Y-131518819D02*
X106388380Y-130518819D01*
X106388380Y-130518819D02*
X106293142Y-130661676D01*
X106293142Y-130661676D02*
X106197904Y-130756914D01*
X106197904Y-130756914D02*
X106102666Y-130804533D01*
X107055047Y-130518819D02*
X107055047Y-130709295D01*
X107435999Y-130518819D02*
X107435999Y-130709295D01*
X108483619Y-130852152D02*
X108864571Y-130852152D01*
X108626476Y-131518819D02*
X108626476Y-130661676D01*
X108626476Y-130661676D02*
X108674095Y-130566438D01*
X108674095Y-130566438D02*
X108769333Y-130518819D01*
X108769333Y-130518819D02*
X108864571Y-130518819D01*
X109578857Y-131471200D02*
X109483619Y-131518819D01*
X109483619Y-131518819D02*
X109293143Y-131518819D01*
X109293143Y-131518819D02*
X109197905Y-131471200D01*
X109197905Y-131471200D02*
X109150286Y-131375961D01*
X109150286Y-131375961D02*
X109150286Y-130995009D01*
X109150286Y-130995009D02*
X109197905Y-130899771D01*
X109197905Y-130899771D02*
X109293143Y-130852152D01*
X109293143Y-130852152D02*
X109483619Y-130852152D01*
X109483619Y-130852152D02*
X109578857Y-130899771D01*
X109578857Y-130899771D02*
X109626476Y-130995009D01*
X109626476Y-130995009D02*
X109626476Y-131090247D01*
X109626476Y-131090247D02*
X109150286Y-131185485D01*
X110055048Y-131518819D02*
X110055048Y-130852152D01*
X110055048Y-130947390D02*
X110102667Y-130899771D01*
X110102667Y-130899771D02*
X110197905Y-130852152D01*
X110197905Y-130852152D02*
X110340762Y-130852152D01*
X110340762Y-130852152D02*
X110436000Y-130899771D01*
X110436000Y-130899771D02*
X110483619Y-130995009D01*
X110483619Y-130995009D02*
X110483619Y-131518819D01*
X110483619Y-130995009D02*
X110531238Y-130899771D01*
X110531238Y-130899771D02*
X110626476Y-130852152D01*
X110626476Y-130852152D02*
X110769333Y-130852152D01*
X110769333Y-130852152D02*
X110864572Y-130899771D01*
X110864572Y-130899771D02*
X110912191Y-130995009D01*
X110912191Y-130995009D02*
X110912191Y-131518819D01*
X111816952Y-131518819D02*
X111816952Y-130995009D01*
X111816952Y-130995009D02*
X111769333Y-130899771D01*
X111769333Y-130899771D02*
X111674095Y-130852152D01*
X111674095Y-130852152D02*
X111483619Y-130852152D01*
X111483619Y-130852152D02*
X111388381Y-130899771D01*
X111816952Y-131471200D02*
X111721714Y-131518819D01*
X111721714Y-131518819D02*
X111483619Y-131518819D01*
X111483619Y-131518819D02*
X111388381Y-131471200D01*
X111388381Y-131471200D02*
X111340762Y-131375961D01*
X111340762Y-131375961D02*
X111340762Y-131280723D01*
X111340762Y-131280723D02*
X111388381Y-131185485D01*
X111388381Y-131185485D02*
X111483619Y-131137866D01*
X111483619Y-131137866D02*
X111721714Y-131137866D01*
X111721714Y-131137866D02*
X111816952Y-131090247D01*
X112436000Y-131518819D02*
X112340762Y-131471200D01*
X112340762Y-131471200D02*
X112293143Y-131375961D01*
X112293143Y-131375961D02*
X112293143Y-130518819D01*
X113197905Y-131471200D02*
X113102667Y-131518819D01*
X113102667Y-131518819D02*
X112912191Y-131518819D01*
X112912191Y-131518819D02*
X112816953Y-131471200D01*
X112816953Y-131471200D02*
X112769334Y-131375961D01*
X112769334Y-131375961D02*
X112769334Y-130995009D01*
X112769334Y-130995009D02*
X112816953Y-130899771D01*
X112816953Y-130899771D02*
X112912191Y-130852152D01*
X112912191Y-130852152D02*
X113102667Y-130852152D01*
X113102667Y-130852152D02*
X113197905Y-130899771D01*
X113197905Y-130899771D02*
X113245524Y-130995009D01*
X113245524Y-130995009D02*
X113245524Y-131090247D01*
X113245524Y-131090247D02*
X112769334Y-131185485D01*
X98386819Y-102020666D02*
X97910628Y-102353999D01*
X98386819Y-102592094D02*
X97386819Y-102592094D01*
X97386819Y-102592094D02*
X97386819Y-102211142D01*
X97386819Y-102211142D02*
X97434438Y-102115904D01*
X97434438Y-102115904D02*
X97482057Y-102068285D01*
X97482057Y-102068285D02*
X97577295Y-102020666D01*
X97577295Y-102020666D02*
X97720152Y-102020666D01*
X97720152Y-102020666D02*
X97815390Y-102068285D01*
X97815390Y-102068285D02*
X97863009Y-102115904D01*
X97863009Y-102115904D02*
X97910628Y-102211142D01*
X97910628Y-102211142D02*
X97910628Y-102592094D01*
X97482057Y-101639713D02*
X97434438Y-101592094D01*
X97434438Y-101592094D02*
X97386819Y-101496856D01*
X97386819Y-101496856D02*
X97386819Y-101258761D01*
X97386819Y-101258761D02*
X97434438Y-101163523D01*
X97434438Y-101163523D02*
X97482057Y-101115904D01*
X97482057Y-101115904D02*
X97577295Y-101068285D01*
X97577295Y-101068285D02*
X97672533Y-101068285D01*
X97672533Y-101068285D02*
X97815390Y-101115904D01*
X97815390Y-101115904D02*
X98386819Y-101687332D01*
X98386819Y-101687332D02*
X98386819Y-101068285D01*
X139279333Y-139033580D02*
X139231714Y-139081200D01*
X139231714Y-139081200D02*
X139088857Y-139128819D01*
X139088857Y-139128819D02*
X138993619Y-139128819D01*
X138993619Y-139128819D02*
X138850762Y-139081200D01*
X138850762Y-139081200D02*
X138755524Y-138985961D01*
X138755524Y-138985961D02*
X138707905Y-138890723D01*
X138707905Y-138890723D02*
X138660286Y-138700247D01*
X138660286Y-138700247D02*
X138660286Y-138557390D01*
X138660286Y-138557390D02*
X138707905Y-138366914D01*
X138707905Y-138366914D02*
X138755524Y-138271676D01*
X138755524Y-138271676D02*
X138850762Y-138176438D01*
X138850762Y-138176438D02*
X138993619Y-138128819D01*
X138993619Y-138128819D02*
X139088857Y-138128819D01*
X139088857Y-138128819D02*
X139231714Y-138176438D01*
X139231714Y-138176438D02*
X139279333Y-138224057D01*
X140136476Y-138462152D02*
X140136476Y-139128819D01*
X139898381Y-138081200D02*
X139660286Y-138795485D01*
X139660286Y-138795485D02*
X140279333Y-138795485D01*
X111573333Y-138535580D02*
X111525714Y-138583200D01*
X111525714Y-138583200D02*
X111382857Y-138630819D01*
X111382857Y-138630819D02*
X111287619Y-138630819D01*
X111287619Y-138630819D02*
X111144762Y-138583200D01*
X111144762Y-138583200D02*
X111049524Y-138487961D01*
X111049524Y-138487961D02*
X111001905Y-138392723D01*
X111001905Y-138392723D02*
X110954286Y-138202247D01*
X110954286Y-138202247D02*
X110954286Y-138059390D01*
X110954286Y-138059390D02*
X111001905Y-137868914D01*
X111001905Y-137868914D02*
X111049524Y-137773676D01*
X111049524Y-137773676D02*
X111144762Y-137678438D01*
X111144762Y-137678438D02*
X111287619Y-137630819D01*
X111287619Y-137630819D02*
X111382857Y-137630819D01*
X111382857Y-137630819D02*
X111525714Y-137678438D01*
X111525714Y-137678438D02*
X111573333Y-137726057D01*
X111954286Y-137726057D02*
X112001905Y-137678438D01*
X112001905Y-137678438D02*
X112097143Y-137630819D01*
X112097143Y-137630819D02*
X112335238Y-137630819D01*
X112335238Y-137630819D02*
X112430476Y-137678438D01*
X112430476Y-137678438D02*
X112478095Y-137726057D01*
X112478095Y-137726057D02*
X112525714Y-137821295D01*
X112525714Y-137821295D02*
X112525714Y-137916533D01*
X112525714Y-137916533D02*
X112478095Y-138059390D01*
X112478095Y-138059390D02*
X111906667Y-138630819D01*
X111906667Y-138630819D02*
X112525714Y-138630819D01*
X96353333Y-138281580D02*
X96305714Y-138329200D01*
X96305714Y-138329200D02*
X96162857Y-138376819D01*
X96162857Y-138376819D02*
X96067619Y-138376819D01*
X96067619Y-138376819D02*
X95924762Y-138329200D01*
X95924762Y-138329200D02*
X95829524Y-138233961D01*
X95829524Y-138233961D02*
X95781905Y-138138723D01*
X95781905Y-138138723D02*
X95734286Y-137948247D01*
X95734286Y-137948247D02*
X95734286Y-137805390D01*
X95734286Y-137805390D02*
X95781905Y-137614914D01*
X95781905Y-137614914D02*
X95829524Y-137519676D01*
X95829524Y-137519676D02*
X95924762Y-137424438D01*
X95924762Y-137424438D02*
X96067619Y-137376819D01*
X96067619Y-137376819D02*
X96162857Y-137376819D01*
X96162857Y-137376819D02*
X96305714Y-137424438D01*
X96305714Y-137424438D02*
X96353333Y-137472057D01*
X96686667Y-137376819D02*
X97305714Y-137376819D01*
X97305714Y-137376819D02*
X96972381Y-137757771D01*
X96972381Y-137757771D02*
X97115238Y-137757771D01*
X97115238Y-137757771D02*
X97210476Y-137805390D01*
X97210476Y-137805390D02*
X97258095Y-137853009D01*
X97258095Y-137853009D02*
X97305714Y-137948247D01*
X97305714Y-137948247D02*
X97305714Y-138186342D01*
X97305714Y-138186342D02*
X97258095Y-138281580D01*
X97258095Y-138281580D02*
X97210476Y-138329200D01*
X97210476Y-138329200D02*
X97115238Y-138376819D01*
X97115238Y-138376819D02*
X96829524Y-138376819D01*
X96829524Y-138376819D02*
X96734286Y-138329200D01*
X96734286Y-138329200D02*
X96686667Y-138281580D01*
X125232095Y-143179819D02*
X125232095Y-143989342D01*
X125232095Y-143989342D02*
X125279714Y-144084580D01*
X125279714Y-144084580D02*
X125327333Y-144132200D01*
X125327333Y-144132200D02*
X125422571Y-144179819D01*
X125422571Y-144179819D02*
X125613047Y-144179819D01*
X125613047Y-144179819D02*
X125708285Y-144132200D01*
X125708285Y-144132200D02*
X125755904Y-144084580D01*
X125755904Y-144084580D02*
X125803523Y-143989342D01*
X125803523Y-143989342D02*
X125803523Y-143179819D01*
X126184476Y-143179819D02*
X126803523Y-143179819D01*
X126803523Y-143179819D02*
X126470190Y-143560771D01*
X126470190Y-143560771D02*
X126613047Y-143560771D01*
X126613047Y-143560771D02*
X126708285Y-143608390D01*
X126708285Y-143608390D02*
X126755904Y-143656009D01*
X126755904Y-143656009D02*
X126803523Y-143751247D01*
X126803523Y-143751247D02*
X126803523Y-143989342D01*
X126803523Y-143989342D02*
X126755904Y-144084580D01*
X126755904Y-144084580D02*
X126708285Y-144132200D01*
X126708285Y-144132200D02*
X126613047Y-144179819D01*
X126613047Y-144179819D02*
X126327333Y-144179819D01*
X126327333Y-144179819D02*
X126232095Y-144132200D01*
X126232095Y-144132200D02*
X126184476Y-144084580D01*
X125692819Y-166393428D02*
X125692819Y-165726762D01*
X125692819Y-165726762D02*
X126692819Y-166155333D01*
X126026152Y-164917238D02*
X126692819Y-164917238D01*
X125645200Y-165155333D02*
X126359485Y-165393428D01*
X126359485Y-165393428D02*
X126359485Y-164774381D01*
X126692819Y-163917238D02*
X126692819Y-164393428D01*
X126692819Y-164393428D02*
X125692819Y-164393428D01*
X125692819Y-163726761D02*
X126692819Y-163393428D01*
X126692819Y-163393428D02*
X125692819Y-163060095D01*
X126645200Y-162774380D02*
X126692819Y-162631523D01*
X126692819Y-162631523D02*
X126692819Y-162393428D01*
X126692819Y-162393428D02*
X126645200Y-162298190D01*
X126645200Y-162298190D02*
X126597580Y-162250571D01*
X126597580Y-162250571D02*
X126502342Y-162202952D01*
X126502342Y-162202952D02*
X126407104Y-162202952D01*
X126407104Y-162202952D02*
X126311866Y-162250571D01*
X126311866Y-162250571D02*
X126264247Y-162298190D01*
X126264247Y-162298190D02*
X126216628Y-162393428D01*
X126216628Y-162393428D02*
X126169009Y-162583904D01*
X126169009Y-162583904D02*
X126121390Y-162679142D01*
X126121390Y-162679142D02*
X126073771Y-162726761D01*
X126073771Y-162726761D02*
X125978533Y-162774380D01*
X125978533Y-162774380D02*
X125883295Y-162774380D01*
X125883295Y-162774380D02*
X125788057Y-162726761D01*
X125788057Y-162726761D02*
X125740438Y-162679142D01*
X125740438Y-162679142D02*
X125692819Y-162583904D01*
X125692819Y-162583904D02*
X125692819Y-162345809D01*
X125692819Y-162345809D02*
X125740438Y-162202952D01*
X126026152Y-161345809D02*
X126692819Y-161345809D01*
X125645200Y-161583904D02*
X126359485Y-161821999D01*
X126359485Y-161821999D02*
X126359485Y-161202952D01*
X125692819Y-160345809D02*
X125692819Y-160821999D01*
X125692819Y-160821999D02*
X126169009Y-160869618D01*
X126169009Y-160869618D02*
X126121390Y-160821999D01*
X126121390Y-160821999D02*
X126073771Y-160726761D01*
X126073771Y-160726761D02*
X126073771Y-160488666D01*
X126073771Y-160488666D02*
X126121390Y-160393428D01*
X126121390Y-160393428D02*
X126169009Y-160345809D01*
X126169009Y-160345809D02*
X126264247Y-160298190D01*
X126264247Y-160298190D02*
X126502342Y-160298190D01*
X126502342Y-160298190D02*
X126597580Y-160345809D01*
X126597580Y-160345809D02*
X126645200Y-160393428D01*
X126645200Y-160393428D02*
X126692819Y-160488666D01*
X126692819Y-160488666D02*
X126692819Y-160726761D01*
X126692819Y-160726761D02*
X126645200Y-160821999D01*
X126645200Y-160821999D02*
X126597580Y-160869618D01*
X95133095Y-143306819D02*
X95133095Y-144116342D01*
X95133095Y-144116342D02*
X95180714Y-144211580D01*
X95180714Y-144211580D02*
X95228333Y-144259200D01*
X95228333Y-144259200D02*
X95323571Y-144306819D01*
X95323571Y-144306819D02*
X95514047Y-144306819D01*
X95514047Y-144306819D02*
X95609285Y-144259200D01*
X95609285Y-144259200D02*
X95656904Y-144211580D01*
X95656904Y-144211580D02*
X95704523Y-144116342D01*
X95704523Y-144116342D02*
X95704523Y-143306819D01*
X96133095Y-143402057D02*
X96180714Y-143354438D01*
X96180714Y-143354438D02*
X96275952Y-143306819D01*
X96275952Y-143306819D02*
X96514047Y-143306819D01*
X96514047Y-143306819D02*
X96609285Y-143354438D01*
X96609285Y-143354438D02*
X96656904Y-143402057D01*
X96656904Y-143402057D02*
X96704523Y-143497295D01*
X96704523Y-143497295D02*
X96704523Y-143592533D01*
X96704523Y-143592533D02*
X96656904Y-143735390D01*
X96656904Y-143735390D02*
X96085476Y-144306819D01*
X96085476Y-144306819D02*
X96704523Y-144306819D01*
X95349819Y-167711047D02*
X95349819Y-167044381D01*
X95349819Y-167044381D02*
X96349819Y-167472952D01*
X95683152Y-166234857D02*
X96349819Y-166234857D01*
X95302200Y-166472952D02*
X96016485Y-166711047D01*
X96016485Y-166711047D02*
X96016485Y-166092000D01*
X96349819Y-165234857D02*
X96349819Y-165711047D01*
X96349819Y-165711047D02*
X95349819Y-165711047D01*
X96302200Y-164949142D02*
X96349819Y-164806285D01*
X96349819Y-164806285D02*
X96349819Y-164568190D01*
X96349819Y-164568190D02*
X96302200Y-164472952D01*
X96302200Y-164472952D02*
X96254580Y-164425333D01*
X96254580Y-164425333D02*
X96159342Y-164377714D01*
X96159342Y-164377714D02*
X96064104Y-164377714D01*
X96064104Y-164377714D02*
X95968866Y-164425333D01*
X95968866Y-164425333D02*
X95921247Y-164472952D01*
X95921247Y-164472952D02*
X95873628Y-164568190D01*
X95873628Y-164568190D02*
X95826009Y-164758666D01*
X95826009Y-164758666D02*
X95778390Y-164853904D01*
X95778390Y-164853904D02*
X95730771Y-164901523D01*
X95730771Y-164901523D02*
X95635533Y-164949142D01*
X95635533Y-164949142D02*
X95540295Y-164949142D01*
X95540295Y-164949142D02*
X95445057Y-164901523D01*
X95445057Y-164901523D02*
X95397438Y-164853904D01*
X95397438Y-164853904D02*
X95349819Y-164758666D01*
X95349819Y-164758666D02*
X95349819Y-164520571D01*
X95349819Y-164520571D02*
X95397438Y-164377714D01*
X95445057Y-163996761D02*
X95397438Y-163949142D01*
X95397438Y-163949142D02*
X95349819Y-163853904D01*
X95349819Y-163853904D02*
X95349819Y-163615809D01*
X95349819Y-163615809D02*
X95397438Y-163520571D01*
X95397438Y-163520571D02*
X95445057Y-163472952D01*
X95445057Y-163472952D02*
X95540295Y-163425333D01*
X95540295Y-163425333D02*
X95635533Y-163425333D01*
X95635533Y-163425333D02*
X95778390Y-163472952D01*
X95778390Y-163472952D02*
X96349819Y-164044380D01*
X96349819Y-164044380D02*
X96349819Y-163425333D01*
X95683152Y-162568190D02*
X96349819Y-162568190D01*
X95302200Y-162806285D02*
X96016485Y-163044380D01*
X96016485Y-163044380D02*
X96016485Y-162425333D01*
X95349819Y-161568190D02*
X95349819Y-162044380D01*
X95349819Y-162044380D02*
X95826009Y-162091999D01*
X95826009Y-162091999D02*
X95778390Y-162044380D01*
X95778390Y-162044380D02*
X95730771Y-161949142D01*
X95730771Y-161949142D02*
X95730771Y-161711047D01*
X95730771Y-161711047D02*
X95778390Y-161615809D01*
X95778390Y-161615809D02*
X95826009Y-161568190D01*
X95826009Y-161568190D02*
X95921247Y-161520571D01*
X95921247Y-161520571D02*
X96159342Y-161520571D01*
X96159342Y-161520571D02*
X96254580Y-161568190D01*
X96254580Y-161568190D02*
X96302200Y-161615809D01*
X96302200Y-161615809D02*
X96349819Y-161711047D01*
X96349819Y-161711047D02*
X96349819Y-161949142D01*
X96349819Y-161949142D02*
X96302200Y-162044380D01*
X96302200Y-162044380D02*
X96254580Y-162091999D01*
X138430095Y-143174819D02*
X138430095Y-143984342D01*
X138430095Y-143984342D02*
X138477714Y-144079580D01*
X138477714Y-144079580D02*
X138525333Y-144127200D01*
X138525333Y-144127200D02*
X138620571Y-144174819D01*
X138620571Y-144174819D02*
X138811047Y-144174819D01*
X138811047Y-144174819D02*
X138906285Y-144127200D01*
X138906285Y-144127200D02*
X138953904Y-144079580D01*
X138953904Y-144079580D02*
X139001523Y-143984342D01*
X139001523Y-143984342D02*
X139001523Y-143174819D01*
X139953904Y-143174819D02*
X139477714Y-143174819D01*
X139477714Y-143174819D02*
X139430095Y-143651009D01*
X139430095Y-143651009D02*
X139477714Y-143603390D01*
X139477714Y-143603390D02*
X139572952Y-143555771D01*
X139572952Y-143555771D02*
X139811047Y-143555771D01*
X139811047Y-143555771D02*
X139906285Y-143603390D01*
X139906285Y-143603390D02*
X139953904Y-143651009D01*
X139953904Y-143651009D02*
X140001523Y-143746247D01*
X140001523Y-143746247D02*
X140001523Y-143984342D01*
X140001523Y-143984342D02*
X139953904Y-144079580D01*
X139953904Y-144079580D02*
X139906285Y-144127200D01*
X139906285Y-144127200D02*
X139811047Y-144174819D01*
X139811047Y-144174819D02*
X139572952Y-144174819D01*
X139572952Y-144174819D02*
X139477714Y-144127200D01*
X139477714Y-144127200D02*
X139430095Y-144079580D01*
X138636819Y-165959856D02*
X138636819Y-165293190D01*
X138636819Y-165293190D02*
X139636819Y-165721761D01*
X138970152Y-164483666D02*
X139636819Y-164483666D01*
X138589200Y-164721761D02*
X139303485Y-164959856D01*
X139303485Y-164959856D02*
X139303485Y-164340809D01*
X139636819Y-163483666D02*
X139636819Y-163959856D01*
X139636819Y-163959856D02*
X138636819Y-163959856D01*
X138732057Y-163197951D02*
X138684438Y-163150332D01*
X138684438Y-163150332D02*
X138636819Y-163055094D01*
X138636819Y-163055094D02*
X138636819Y-162816999D01*
X138636819Y-162816999D02*
X138684438Y-162721761D01*
X138684438Y-162721761D02*
X138732057Y-162674142D01*
X138732057Y-162674142D02*
X138827295Y-162626523D01*
X138827295Y-162626523D02*
X138922533Y-162626523D01*
X138922533Y-162626523D02*
X139065390Y-162674142D01*
X139065390Y-162674142D02*
X139636819Y-163245570D01*
X139636819Y-163245570D02*
X139636819Y-162626523D01*
X138970152Y-161769380D02*
X139636819Y-161769380D01*
X138589200Y-162007475D02*
X139303485Y-162245570D01*
X139303485Y-162245570D02*
X139303485Y-161626523D01*
X138636819Y-160769380D02*
X138636819Y-161245570D01*
X138636819Y-161245570D02*
X139113009Y-161293189D01*
X139113009Y-161293189D02*
X139065390Y-161245570D01*
X139065390Y-161245570D02*
X139017771Y-161150332D01*
X139017771Y-161150332D02*
X139017771Y-160912237D01*
X139017771Y-160912237D02*
X139065390Y-160816999D01*
X139065390Y-160816999D02*
X139113009Y-160769380D01*
X139113009Y-160769380D02*
X139208247Y-160721761D01*
X139208247Y-160721761D02*
X139446342Y-160721761D01*
X139446342Y-160721761D02*
X139541580Y-160769380D01*
X139541580Y-160769380D02*
X139589200Y-160816999D01*
X139589200Y-160816999D02*
X139636819Y-160912237D01*
X139636819Y-160912237D02*
X139636819Y-161150332D01*
X139636819Y-161150332D02*
X139589200Y-161245570D01*
X139589200Y-161245570D02*
X139541580Y-161293189D01*
X110500095Y-143174819D02*
X110500095Y-143984342D01*
X110500095Y-143984342D02*
X110547714Y-144079580D01*
X110547714Y-144079580D02*
X110595333Y-144127200D01*
X110595333Y-144127200D02*
X110690571Y-144174819D01*
X110690571Y-144174819D02*
X110881047Y-144174819D01*
X110881047Y-144174819D02*
X110976285Y-144127200D01*
X110976285Y-144127200D02*
X111023904Y-144079580D01*
X111023904Y-144079580D02*
X111071523Y-143984342D01*
X111071523Y-143984342D02*
X111071523Y-143174819D01*
X112071523Y-144174819D02*
X111500095Y-144174819D01*
X111785809Y-144174819D02*
X111785809Y-143174819D01*
X111785809Y-143174819D02*
X111690571Y-143317676D01*
X111690571Y-143317676D02*
X111595333Y-143412914D01*
X111595333Y-143412914D02*
X111500095Y-143460533D01*
X110716819Y-167203047D02*
X110716819Y-166536381D01*
X110716819Y-166536381D02*
X111716819Y-166964952D01*
X111050152Y-165726857D02*
X111716819Y-165726857D01*
X110669200Y-165964952D02*
X111383485Y-166203047D01*
X111383485Y-166203047D02*
X111383485Y-165584000D01*
X111716819Y-164726857D02*
X111716819Y-165203047D01*
X111716819Y-165203047D02*
X110716819Y-165203047D01*
X111669200Y-164441142D02*
X111716819Y-164298285D01*
X111716819Y-164298285D02*
X111716819Y-164060190D01*
X111716819Y-164060190D02*
X111669200Y-163964952D01*
X111669200Y-163964952D02*
X111621580Y-163917333D01*
X111621580Y-163917333D02*
X111526342Y-163869714D01*
X111526342Y-163869714D02*
X111431104Y-163869714D01*
X111431104Y-163869714D02*
X111335866Y-163917333D01*
X111335866Y-163917333D02*
X111288247Y-163964952D01*
X111288247Y-163964952D02*
X111240628Y-164060190D01*
X111240628Y-164060190D02*
X111193009Y-164250666D01*
X111193009Y-164250666D02*
X111145390Y-164345904D01*
X111145390Y-164345904D02*
X111097771Y-164393523D01*
X111097771Y-164393523D02*
X111002533Y-164441142D01*
X111002533Y-164441142D02*
X110907295Y-164441142D01*
X110907295Y-164441142D02*
X110812057Y-164393523D01*
X110812057Y-164393523D02*
X110764438Y-164345904D01*
X110764438Y-164345904D02*
X110716819Y-164250666D01*
X110716819Y-164250666D02*
X110716819Y-164012571D01*
X110716819Y-164012571D02*
X110764438Y-163869714D01*
X110812057Y-163488761D02*
X110764438Y-163441142D01*
X110764438Y-163441142D02*
X110716819Y-163345904D01*
X110716819Y-163345904D02*
X110716819Y-163107809D01*
X110716819Y-163107809D02*
X110764438Y-163012571D01*
X110764438Y-163012571D02*
X110812057Y-162964952D01*
X110812057Y-162964952D02*
X110907295Y-162917333D01*
X110907295Y-162917333D02*
X111002533Y-162917333D01*
X111002533Y-162917333D02*
X111145390Y-162964952D01*
X111145390Y-162964952D02*
X111716819Y-163536380D01*
X111716819Y-163536380D02*
X111716819Y-162917333D01*
X111050152Y-162060190D02*
X111716819Y-162060190D01*
X110669200Y-162298285D02*
X111383485Y-162536380D01*
X111383485Y-162536380D02*
X111383485Y-161917333D01*
X110716819Y-161060190D02*
X110716819Y-161536380D01*
X110716819Y-161536380D02*
X111193009Y-161583999D01*
X111193009Y-161583999D02*
X111145390Y-161536380D01*
X111145390Y-161536380D02*
X111097771Y-161441142D01*
X111097771Y-161441142D02*
X111097771Y-161203047D01*
X111097771Y-161203047D02*
X111145390Y-161107809D01*
X111145390Y-161107809D02*
X111193009Y-161060190D01*
X111193009Y-161060190D02*
X111288247Y-161012571D01*
X111288247Y-161012571D02*
X111526342Y-161012571D01*
X111526342Y-161012571D02*
X111621580Y-161060190D01*
X111621580Y-161060190D02*
X111669200Y-161107809D01*
X111669200Y-161107809D02*
X111716819Y-161203047D01*
X111716819Y-161203047D02*
X111716819Y-161441142D01*
X111716819Y-161441142D02*
X111669200Y-161536380D01*
X111669200Y-161536380D02*
X111621580Y-161583999D01*
X113117333Y-104736819D02*
X112784000Y-104260628D01*
X112545905Y-104736819D02*
X112545905Y-103736819D01*
X112545905Y-103736819D02*
X112926857Y-103736819D01*
X112926857Y-103736819D02*
X113022095Y-103784438D01*
X113022095Y-103784438D02*
X113069714Y-103832057D01*
X113069714Y-103832057D02*
X113117333Y-103927295D01*
X113117333Y-103927295D02*
X113117333Y-104070152D01*
X113117333Y-104070152D02*
X113069714Y-104165390D01*
X113069714Y-104165390D02*
X113022095Y-104213009D01*
X113022095Y-104213009D02*
X112926857Y-104260628D01*
X112926857Y-104260628D02*
X112545905Y-104260628D01*
X113974476Y-104070152D02*
X113974476Y-104736819D01*
X113736381Y-103689200D02*
X113498286Y-104403485D01*
X113498286Y-104403485D02*
X114117333Y-104403485D01*
X125817333Y-139033580D02*
X125769714Y-139081200D01*
X125769714Y-139081200D02*
X125626857Y-139128819D01*
X125626857Y-139128819D02*
X125531619Y-139128819D01*
X125531619Y-139128819D02*
X125388762Y-139081200D01*
X125388762Y-139081200D02*
X125293524Y-138985961D01*
X125293524Y-138985961D02*
X125245905Y-138890723D01*
X125245905Y-138890723D02*
X125198286Y-138700247D01*
X125198286Y-138700247D02*
X125198286Y-138557390D01*
X125198286Y-138557390D02*
X125245905Y-138366914D01*
X125245905Y-138366914D02*
X125293524Y-138271676D01*
X125293524Y-138271676D02*
X125388762Y-138176438D01*
X125388762Y-138176438D02*
X125531619Y-138128819D01*
X125531619Y-138128819D02*
X125626857Y-138128819D01*
X125626857Y-138128819D02*
X125769714Y-138176438D01*
X125769714Y-138176438D02*
X125817333Y-138224057D01*
X126769714Y-139128819D02*
X126198286Y-139128819D01*
X126484000Y-139128819D02*
X126484000Y-138128819D01*
X126484000Y-138128819D02*
X126388762Y-138271676D01*
X126388762Y-138271676D02*
X126293524Y-138366914D01*
X126293524Y-138366914D02*
X126198286Y-138414533D01*
X112696666Y-181724819D02*
X112696666Y-182439104D01*
X112696666Y-182439104D02*
X112649047Y-182581961D01*
X112649047Y-182581961D02*
X112553809Y-182677200D01*
X112553809Y-182677200D02*
X112410952Y-182724819D01*
X112410952Y-182724819D02*
X112315714Y-182724819D01*
X113696666Y-182724819D02*
X113125238Y-182724819D01*
X113410952Y-182724819D02*
X113410952Y-181724819D01*
X113410952Y-181724819D02*
X113315714Y-181867676D01*
X113315714Y-181867676D02*
X113220476Y-181962914D01*
X113220476Y-181962914D02*
X113125238Y-182010533D01*
X139025333Y-176080819D02*
X138692000Y-175604628D01*
X138453905Y-176080819D02*
X138453905Y-175080819D01*
X138453905Y-175080819D02*
X138834857Y-175080819D01*
X138834857Y-175080819D02*
X138930095Y-175128438D01*
X138930095Y-175128438D02*
X138977714Y-175176057D01*
X138977714Y-175176057D02*
X139025333Y-175271295D01*
X139025333Y-175271295D02*
X139025333Y-175414152D01*
X139025333Y-175414152D02*
X138977714Y-175509390D01*
X138977714Y-175509390D02*
X138930095Y-175557009D01*
X138930095Y-175557009D02*
X138834857Y-175604628D01*
X138834857Y-175604628D02*
X138453905Y-175604628D01*
X139882476Y-175080819D02*
X139692000Y-175080819D01*
X139692000Y-175080819D02*
X139596762Y-175128438D01*
X139596762Y-175128438D02*
X139549143Y-175176057D01*
X139549143Y-175176057D02*
X139453905Y-175318914D01*
X139453905Y-175318914D02*
X139406286Y-175509390D01*
X139406286Y-175509390D02*
X139406286Y-175890342D01*
X139406286Y-175890342D02*
X139453905Y-175985580D01*
X139453905Y-175985580D02*
X139501524Y-176033200D01*
X139501524Y-176033200D02*
X139596762Y-176080819D01*
X139596762Y-176080819D02*
X139787238Y-176080819D01*
X139787238Y-176080819D02*
X139882476Y-176033200D01*
X139882476Y-176033200D02*
X139930095Y-175985580D01*
X139930095Y-175985580D02*
X139977714Y-175890342D01*
X139977714Y-175890342D02*
X139977714Y-175652247D01*
X139977714Y-175652247D02*
X139930095Y-175557009D01*
X139930095Y-175557009D02*
X139882476Y-175509390D01*
X139882476Y-175509390D02*
X139787238Y-175461771D01*
X139787238Y-175461771D02*
X139596762Y-175461771D01*
X139596762Y-175461771D02*
X139501524Y-175509390D01*
X139501524Y-175509390D02*
X139453905Y-175557009D01*
X139453905Y-175557009D02*
X139406286Y-175652247D01*
X92484905Y-100149819D02*
X92484905Y-99149819D01*
X92484905Y-99149819D02*
X92723000Y-99149819D01*
X92723000Y-99149819D02*
X92865857Y-99197438D01*
X92865857Y-99197438D02*
X92961095Y-99292676D01*
X92961095Y-99292676D02*
X93008714Y-99387914D01*
X93008714Y-99387914D02*
X93056333Y-99578390D01*
X93056333Y-99578390D02*
X93056333Y-99721247D01*
X93056333Y-99721247D02*
X93008714Y-99911723D01*
X93008714Y-99911723D02*
X92961095Y-100006961D01*
X92961095Y-100006961D02*
X92865857Y-100102200D01*
X92865857Y-100102200D02*
X92723000Y-100149819D01*
X92723000Y-100149819D02*
X92484905Y-100149819D01*
X94008714Y-100149819D02*
X93437286Y-100149819D01*
X93723000Y-100149819D02*
X93723000Y-99149819D01*
X93723000Y-99149819D02*
X93627762Y-99292676D01*
X93627762Y-99292676D02*
X93532524Y-99387914D01*
X93532524Y-99387914D02*
X93437286Y-99435533D01*
D11*
X110414000Y-106172000D02*
X111364000Y-106172000D01*
X111364000Y-105252000D02*
X111364000Y-107092000D01*
X111364000Y-107092000D02*
X115204000Y-107092000D01*
X115204000Y-105252000D02*
X111364000Y-105252000D01*
X115204000Y-107092000D02*
X115204000Y-105252000D01*
X116154000Y-106172000D02*
X115204000Y-106172000D01*
X99410000Y-99934000D02*
X99410000Y-103774000D01*
X99410000Y-103774000D02*
X101250000Y-103774000D01*
X100330000Y-98984000D02*
X100330000Y-99934000D01*
X100330000Y-104724000D02*
X100330000Y-103774000D01*
X101250000Y-99934000D02*
X99410000Y-99934000D01*
X101250000Y-103774000D02*
X101250000Y-99934000D01*
D10*
X87376000Y-109220000D02*
X148336000Y-109220000D01*
X87376000Y-123190000D02*
X88646000Y-123190000D01*
X87376000Y-124460000D02*
X100076000Y-124460000D01*
X87376000Y-127000000D02*
X87376000Y-109220000D01*
X88646000Y-113030000D02*
X87376000Y-113030000D01*
X88646000Y-123190000D02*
X88646000Y-113030000D01*
X100076000Y-111760000D02*
X87376000Y-111760000D01*
X100076000Y-124460000D02*
X100076000Y-111760000D01*
X103886000Y-116840000D02*
X107696000Y-116840000D01*
X103886000Y-119380000D02*
X103886000Y-116840000D01*
X107696000Y-116840000D02*
X107696000Y-119380000D01*
X107696000Y-119380000D02*
X103886000Y-119380000D01*
X112776000Y-111760000D02*
X112776000Y-124460000D01*
X112776000Y-124460000D02*
X125476000Y-124460000D01*
X125476000Y-111760000D02*
X112776000Y-111760000D01*
X125476000Y-124460000D02*
X125476000Y-111760000D01*
X129336800Y-112270800D02*
X142036800Y-112270800D01*
X129336800Y-114810800D02*
X129336800Y-112270800D01*
X131106000Y-118211600D02*
X131106000Y-124461600D01*
X131106000Y-124461600D02*
X135106000Y-124461600D01*
X135106000Y-118211600D02*
X131106000Y-118211600D01*
X135106000Y-124211600D02*
X135106000Y-118211600D01*
X135106000Y-124461600D02*
X135106000Y-124211600D01*
X139496800Y-114810800D02*
X139496800Y-112270800D01*
X142036800Y-112270800D02*
X142036800Y-114810800D01*
X142036800Y-114810800D02*
X129336800Y-114810800D01*
X142036800Y-114810800D02*
X139496800Y-114810800D01*
X143256000Y-114300000D02*
X143256000Y-121920000D01*
X143256000Y-114300000D02*
X148336000Y-114300000D01*
X143256000Y-121920000D02*
X148336000Y-121920000D01*
X148336000Y-109220000D02*
X148336000Y-127000000D01*
X148336000Y-114300000D02*
X149606000Y-114300000D01*
X148336000Y-127000000D02*
X87376000Y-127000000D01*
X149606000Y-114300000D02*
X149606000Y-121920000D01*
X149606000Y-121920000D02*
X148336000Y-121920000D01*
X106689026Y-118110000D02*
G75*
G02*
X104892974Y-118110000I-898026J0D01*
G01*
X104892974Y-118110000D02*
G75*
G02*
X106689026Y-118110000I898026J0D01*
G01*
D12*
X115167000Y-118544000D02*
X114913000Y-118798000D01*
X114659000Y-118417000D01*
X114913000Y-118163000D01*
X115167000Y-118544000D01*
G36*
X115167000Y-118544000D02*
G01*
X114913000Y-118798000D01*
X114659000Y-118417000D01*
X114913000Y-118163000D01*
X115167000Y-118544000D01*
G37*
X115548000Y-118163000D02*
X115294000Y-118417000D01*
X115040000Y-118036000D01*
X115294000Y-117782000D01*
X115548000Y-118163000D01*
G36*
X115548000Y-118163000D02*
G01*
X115294000Y-118417000D01*
X115040000Y-118036000D01*
X115294000Y-117782000D01*
X115548000Y-118163000D01*
G37*
X115929000Y-117782000D02*
X115675000Y-118036000D01*
X115421000Y-117655000D01*
X115675000Y-117401000D01*
X115929000Y-117782000D01*
G36*
X115929000Y-117782000D02*
G01*
X115675000Y-118036000D01*
X115421000Y-117655000D01*
X115675000Y-117401000D01*
X115929000Y-117782000D01*
G37*
X116310000Y-118290000D02*
X116056000Y-118544000D01*
X115802000Y-118163000D01*
X116056000Y-117909000D01*
X116310000Y-118290000D01*
G36*
X116310000Y-118290000D02*
G01*
X116056000Y-118544000D01*
X115802000Y-118163000D01*
X116056000Y-117909000D01*
X116310000Y-118290000D01*
G37*
X116691000Y-117909000D02*
X116437000Y-118163000D01*
X116183000Y-117782000D01*
X116437000Y-117528000D01*
X116691000Y-117909000D01*
G36*
X116691000Y-117909000D02*
G01*
X116437000Y-118163000D01*
X116183000Y-117782000D01*
X116437000Y-117528000D01*
X116691000Y-117909000D01*
G37*
X116691000Y-118798000D02*
X116437000Y-119052000D01*
X116183000Y-118671000D01*
X116437000Y-118417000D01*
X116691000Y-118798000D01*
G36*
X116691000Y-118798000D02*
G01*
X116437000Y-119052000D01*
X116183000Y-118671000D01*
X116437000Y-118417000D01*
X116691000Y-118798000D01*
G37*
X117072000Y-118417000D02*
X116818000Y-118671000D01*
X116564000Y-118290000D01*
X116818000Y-118036000D01*
X117072000Y-118417000D01*
G36*
X117072000Y-118417000D02*
G01*
X116818000Y-118671000D01*
X116564000Y-118290000D01*
X116818000Y-118036000D01*
X117072000Y-118417000D01*
G37*
X117453000Y-118925000D02*
X117199000Y-119179000D01*
X116945000Y-118798000D01*
X117199000Y-118544000D01*
X117453000Y-118925000D01*
G36*
X117453000Y-118925000D02*
G01*
X117199000Y-119179000D01*
X116945000Y-118798000D01*
X117199000Y-118544000D01*
X117453000Y-118925000D01*
G37*
D11*
X87848000Y-103666000D02*
X87848000Y-103822000D01*
X87848000Y-105982000D02*
X87848000Y-106138000D01*
X87848000Y-103666484D02*
G75*
G02*
X91080335Y-103823392I1560000J-1235516D01*
G01*
X88367039Y-103822000D02*
G75*
G02*
X90449130Y-103822163I1040961J-1080000D01*
G01*
X90449130Y-105981837D02*
G75*
G02*
X88367039Y-105982000I-1041130J1079837D01*
G01*
X91080335Y-105980608D02*
G75*
G02*
X87848000Y-106137516I-1672335J1078608D01*
G01*
X124258000Y-96810000D02*
X124258000Y-101310000D01*
X126758000Y-102560000D02*
X128258000Y-102560000D01*
X128258000Y-95560000D02*
X126758000Y-95560000D01*
X130758000Y-101310000D02*
X130758000Y-96810000D01*
X110414000Y-98298000D02*
X111364000Y-98298000D01*
X111364000Y-97378000D02*
X111364000Y-99218000D01*
X111364000Y-99218000D02*
X115204000Y-99218000D01*
X115204000Y-97378000D02*
X111364000Y-97378000D01*
X115204000Y-99218000D02*
X115204000Y-97378000D01*
X116154000Y-98298000D02*
X115204000Y-98298000D01*
X144578000Y-96810000D02*
X144578000Y-101310000D01*
X147078000Y-102560000D02*
X148578000Y-102560000D01*
X148578000Y-95560000D02*
X147078000Y-95560000D01*
X151078000Y-101310000D02*
X151078000Y-96810000D01*
X134418000Y-96810000D02*
X134418000Y-101310000D01*
X136918000Y-102560000D02*
X138418000Y-102560000D01*
X138418000Y-95560000D02*
X136918000Y-95560000D01*
X140918000Y-101310000D02*
X140918000Y-96810000D01*
X100788000Y-135696000D02*
X100788000Y-134366000D01*
X102118000Y-135696000D02*
X100788000Y-135696000D01*
X103388000Y-133036000D02*
X111068000Y-133036000D01*
X103388000Y-135696000D02*
X103388000Y-133036000D01*
X103388000Y-135696000D02*
X111068000Y-135696000D01*
X111068000Y-135696000D02*
X111068000Y-133036000D01*
X95092000Y-99934000D02*
X95092000Y-103774000D01*
X95092000Y-103774000D02*
X96932000Y-103774000D01*
X96012000Y-98984000D02*
X96012000Y-99934000D01*
X96012000Y-104724000D02*
X96012000Y-103774000D01*
X96932000Y-99934000D02*
X95092000Y-99934000D01*
X96932000Y-103774000D02*
X96932000Y-99934000D01*
X137426000Y-139804000D02*
X137426000Y-140429000D01*
X137426000Y-139804000D02*
X141466000Y-139804000D01*
X137426000Y-142019000D02*
X137426000Y-142644000D01*
X137426000Y-142644000D02*
X141466000Y-142644000D01*
X141466000Y-139804000D02*
X141466000Y-140429000D01*
X141466000Y-142019000D02*
X141466000Y-142644000D01*
X109486000Y-140429000D02*
X109486000Y-139804000D01*
X109486000Y-142644000D02*
X109486000Y-142019000D01*
X113526000Y-139804000D02*
X109486000Y-139804000D01*
X113526000Y-140429000D02*
X113526000Y-139804000D01*
X113526000Y-142644000D02*
X109486000Y-142644000D01*
X113526000Y-142644000D02*
X113526000Y-142019000D01*
X94012000Y-139921000D02*
X94012000Y-139296000D01*
X94012000Y-142136000D02*
X94012000Y-141511000D01*
X98052000Y-139296000D02*
X94012000Y-139296000D01*
X98052000Y-139921000D02*
X98052000Y-139296000D01*
X98052000Y-142136000D02*
X94012000Y-142136000D01*
X98052000Y-142136000D02*
X98052000Y-141511000D01*
X120854000Y-144665000D02*
X120854000Y-170305000D01*
X120854000Y-170305000D02*
X131134000Y-170305000D01*
X123344000Y-144725000D02*
X123344000Y-170245000D01*
X123344000Y-170245000D02*
X128644000Y-170245000D01*
X124994000Y-144725000D02*
X123344000Y-144725000D01*
X128644000Y-144725000D02*
X126994000Y-144725000D01*
X128644000Y-170245000D02*
X128644000Y-144725000D01*
X131134000Y-144665000D02*
X120854000Y-144665000D01*
X131134000Y-170305000D02*
X131134000Y-144665000D01*
X126994000Y-144725000D02*
G75*
G02*
X124994000Y-144725000I-1000000J0D01*
G01*
X90755000Y-144792000D02*
X90755000Y-170432000D01*
X90755000Y-170432000D02*
X101035000Y-170432000D01*
X93245000Y-144852000D02*
X93245000Y-170372000D01*
X93245000Y-170372000D02*
X98545000Y-170372000D01*
X94895000Y-144852000D02*
X93245000Y-144852000D01*
X98545000Y-144852000D02*
X96895000Y-144852000D01*
X98545000Y-170372000D02*
X98545000Y-144852000D01*
X101035000Y-144792000D02*
X90755000Y-144792000D01*
X101035000Y-170432000D02*
X101035000Y-144792000D01*
X96895000Y-144852000D02*
G75*
G02*
X94895000Y-144852000I-1000000J0D01*
G01*
X134052000Y-144660000D02*
X134052000Y-170300000D01*
X134052000Y-170300000D02*
X144332000Y-170300000D01*
X136542000Y-144720000D02*
X136542000Y-170240000D01*
X136542000Y-170240000D02*
X141842000Y-170240000D01*
X138192000Y-144720000D02*
X136542000Y-144720000D01*
X141842000Y-144720000D02*
X140192000Y-144720000D01*
X141842000Y-170240000D02*
X141842000Y-144720000D01*
X144332000Y-144660000D02*
X134052000Y-144660000D01*
X144332000Y-170300000D02*
X144332000Y-144660000D01*
X140192000Y-144720000D02*
G75*
G02*
X138192000Y-144720000I-1000000J0D01*
G01*
X106122000Y-144660000D02*
X106122000Y-170300000D01*
X106122000Y-170300000D02*
X116402000Y-170300000D01*
X108612000Y-144720000D02*
X108612000Y-170240000D01*
X108612000Y-170240000D02*
X113912000Y-170240000D01*
X110262000Y-144720000D02*
X108612000Y-144720000D01*
X113912000Y-144720000D02*
X112262000Y-144720000D01*
X113912000Y-170240000D02*
X113912000Y-144720000D01*
X116402000Y-144660000D02*
X106122000Y-144660000D01*
X116402000Y-170300000D02*
X116402000Y-144660000D01*
X112262000Y-144720000D02*
G75*
G02*
X110262000Y-144720000I-1000000J0D01*
G01*
X110414000Y-102362000D02*
X111364000Y-102362000D01*
X111364000Y-101442000D02*
X111364000Y-103282000D01*
X111364000Y-103282000D02*
X115204000Y-103282000D01*
X115204000Y-101442000D02*
X111364000Y-101442000D01*
X115204000Y-103282000D02*
X115204000Y-101442000D01*
X116154000Y-102362000D02*
X115204000Y-102362000D01*
X123964000Y-139804000D02*
X123964000Y-140429000D01*
X123964000Y-139804000D02*
X128004000Y-139804000D01*
X123964000Y-142019000D02*
X123964000Y-142644000D01*
X123964000Y-142644000D02*
X128004000Y-142644000D01*
X128004000Y-139804000D02*
X128004000Y-140429000D01*
X128004000Y-142019000D02*
X128004000Y-142644000D01*
X136322000Y-177546000D02*
X137272000Y-177546000D01*
X137272000Y-176626000D02*
X137272000Y-178466000D01*
X137272000Y-178466000D02*
X141112000Y-178466000D01*
X141112000Y-176626000D02*
X137272000Y-176626000D01*
X141112000Y-178466000D02*
X141112000Y-176626000D01*
X142062000Y-177546000D02*
X141112000Y-177546000D01*
X87848000Y-97824000D02*
X87848000Y-97980000D01*
X87848000Y-100140000D02*
X87848000Y-100296000D01*
X87848000Y-97824484D02*
G75*
G02*
X91080335Y-97981392I1560000J-1235516D01*
G01*
X88367039Y-97980000D02*
G75*
G02*
X90449130Y-97980163I1040961J-1080000D01*
G01*
X90449130Y-100139837D02*
G75*
G02*
X88367039Y-100140000I-1041130J1079837D01*
G01*
X91080335Y-100138608D02*
G75*
G02*
X87848000Y-100295516I-1672335J1078608D01*
G01*
%LPC*%
D13*
X117094000Y-106172000D03*
D14*
X109474000Y-106172000D03*
D13*
X100330000Y-98044000D03*
D14*
X100330000Y-105664000D03*
D15*
X147066000Y-110490000D03*
D16*
X144526000Y-110490000D03*
X141986000Y-110490000D03*
X139446000Y-110490000D03*
X136906000Y-110490000D03*
X134366000Y-110490000D03*
X131826000Y-110490000D03*
X129286000Y-110490000D03*
X126746000Y-110490000D03*
X124206000Y-110490000D03*
X121666000Y-110490000D03*
X119126000Y-110490000D03*
X116586000Y-110490000D03*
X114046000Y-110490000D03*
X111506000Y-110490000D03*
X108966000Y-110490000D03*
X106426000Y-110490000D03*
X103886000Y-110490000D03*
X101346000Y-110490000D03*
X98806000Y-110490000D03*
X96266000Y-110490000D03*
X93726000Y-110490000D03*
X91186000Y-110490000D03*
X88646000Y-110490000D03*
X88646000Y-125730000D03*
X91186000Y-125730000D03*
X93726000Y-125730000D03*
X96266000Y-125730000D03*
X98806000Y-125730000D03*
X101346000Y-125730000D03*
X103886000Y-125730000D03*
X106426000Y-125730000D03*
X108966000Y-125730000D03*
X111506000Y-125730000D03*
X114046000Y-125730000D03*
X116586000Y-125730000D03*
X119126000Y-125730000D03*
X121666000Y-125730000D03*
X124206000Y-125730000D03*
X126746000Y-125730000D03*
X129286000Y-125730000D03*
X131826000Y-125730000D03*
X134366000Y-125730000D03*
X136906000Y-125730000D03*
X139446000Y-125730000D03*
X141986000Y-125730000D03*
X144526000Y-125730000D03*
X147066000Y-125730000D03*
X144526000Y-123190000D03*
X101346000Y-113030000D03*
X101346000Y-115570000D03*
X101346000Y-118110000D03*
X101346000Y-120650000D03*
X101346000Y-123190000D03*
D15*
X140766800Y-113540800D03*
D16*
X138226800Y-113540800D03*
X135686800Y-113540800D03*
X133146800Y-113540800D03*
X130606800Y-113540800D03*
D17*
X134096000Y-123291600D03*
D18*
X134096000Y-121291600D03*
X134096000Y-119291600D03*
X132096000Y-119291600D03*
X132096000Y-121291600D03*
X132096000Y-123291600D03*
X146336000Y-119380000D03*
X146336000Y-116840000D03*
D19*
X88138000Y-104902000D03*
D20*
X90678000Y-104902000D03*
D21*
X129758000Y-95810000D03*
X129758000Y-102310000D03*
X125258000Y-95810000D03*
X125258000Y-102310000D03*
D13*
X117094000Y-98298000D03*
D14*
X109474000Y-98298000D03*
D21*
X150078000Y-95810000D03*
X150078000Y-102310000D03*
X145578000Y-95810000D03*
X145578000Y-102310000D03*
X139918000Y-95810000D03*
X139918000Y-102310000D03*
X135418000Y-95810000D03*
X135418000Y-102310000D03*
D22*
X102118000Y-134366000D03*
D23*
X104658000Y-134366000D03*
X107198000Y-134366000D03*
X109738000Y-134366000D03*
D13*
X96012000Y-98044000D03*
D14*
X96012000Y-105664000D03*
D16*
X138196000Y-141224000D03*
X140696000Y-141224000D03*
X112756000Y-141224000D03*
X110256000Y-141224000D03*
X97282000Y-140716000D03*
X94782000Y-140716000D03*
D15*
X122184000Y-146055000D03*
D24*
X122184000Y-148595000D03*
X122184000Y-151135000D03*
X122184000Y-153675000D03*
X122184000Y-156215000D03*
X122184000Y-158755000D03*
X122184000Y-161295000D03*
X122184000Y-163835000D03*
X122184000Y-166375000D03*
X122184000Y-168915000D03*
X129804000Y-168915000D03*
X129804000Y-166375000D03*
X129804000Y-163835000D03*
X129804000Y-161295000D03*
X129804000Y-158755000D03*
X129804000Y-156215000D03*
X129804000Y-153675000D03*
X129804000Y-151135000D03*
X129804000Y-148595000D03*
X129804000Y-146055000D03*
D15*
X92085000Y-146182000D03*
D24*
X92085000Y-148722000D03*
X92085000Y-151262000D03*
X92085000Y-153802000D03*
X92085000Y-156342000D03*
X92085000Y-158882000D03*
X92085000Y-161422000D03*
X92085000Y-163962000D03*
X92085000Y-166502000D03*
X92085000Y-169042000D03*
X99705000Y-169042000D03*
X99705000Y-166502000D03*
X99705000Y-163962000D03*
X99705000Y-161422000D03*
X99705000Y-158882000D03*
X99705000Y-156342000D03*
X99705000Y-153802000D03*
X99705000Y-151262000D03*
X99705000Y-148722000D03*
X99705000Y-146182000D03*
D15*
X135382000Y-146050000D03*
D24*
X135382000Y-148590000D03*
X135382000Y-151130000D03*
X135382000Y-153670000D03*
X135382000Y-156210000D03*
X135382000Y-158750000D03*
X135382000Y-161290000D03*
X135382000Y-163830000D03*
X135382000Y-166370000D03*
X135382000Y-168910000D03*
X143002000Y-168910000D03*
X143002000Y-166370000D03*
X143002000Y-163830000D03*
X143002000Y-161290000D03*
X143002000Y-158750000D03*
X143002000Y-156210000D03*
X143002000Y-153670000D03*
X143002000Y-151130000D03*
X143002000Y-148590000D03*
X143002000Y-146050000D03*
D15*
X107452000Y-146050000D03*
D24*
X107452000Y-148590000D03*
X107452000Y-151130000D03*
X107452000Y-153670000D03*
X107452000Y-156210000D03*
X107452000Y-158750000D03*
X107452000Y-161290000D03*
X107452000Y-163830000D03*
X107452000Y-166370000D03*
X107452000Y-168910000D03*
X115072000Y-168910000D03*
X115072000Y-166370000D03*
X115072000Y-163830000D03*
X115072000Y-161290000D03*
X115072000Y-158750000D03*
X115072000Y-156210000D03*
X115072000Y-153670000D03*
X115072000Y-151130000D03*
X115072000Y-148590000D03*
X115072000Y-146050000D03*
D13*
X117094000Y-102362000D03*
D14*
X109474000Y-102362000D03*
D16*
X124734000Y-141224000D03*
X127234000Y-141224000D03*
D25*
X144665700Y-187960000D03*
X142125700Y-187960000D03*
X139585700Y-187960000D03*
X137045700Y-187960000D03*
X134505700Y-187960000D03*
X131965700Y-187960000D03*
X129425700Y-187960000D03*
X126885700Y-187960000D03*
X124345700Y-187960000D03*
X121805700Y-187960000D03*
X119265700Y-187960000D03*
X116725700Y-187960000D03*
X114185700Y-187960000D03*
X111645700Y-187960000D03*
X109105700Y-187960000D03*
X106565700Y-187960000D03*
X104025700Y-187960000D03*
X101485700Y-187960000D03*
X98945700Y-187960000D03*
X96405700Y-187960000D03*
X93865700Y-187960000D03*
X91325700Y-187960000D03*
D13*
X135382000Y-177546000D03*
D14*
X143002000Y-177546000D03*
D19*
X88138000Y-99060000D03*
D20*
X90678000Y-99060000D03*
%LPD*%
M02*
